<svg width="95" height="106" viewBox="0 0 95 106" fill="none" xmlns="http://www.w3.org/2000/svg">
<rect x="1.5" y="12.5" width="92" height="92" fill="#F4F4F4" stroke="#676C6D" stroke-width="3"/>
<rect x="1.25" y="10.25" width="92.5" height="28.5" fill="url(#paint0_linear_102_2)" stroke="#4049E0" stroke-width="2.5"/>
<rect x="21" y="28" width="28" height="9" rx="4.5" transform="rotate(-90 21 28)" fill="#434748"/>
<rect x="66" y="28" width="28" height="9" rx="4.5" transform="rotate(-90 66 28)" fill="#434748"/>
<path d="M60.5227 57.4773L34.1818 83.8182M29 70C29 80.4934 37.5066 89 48 89C58.4934 89 67 80.4934 67 70C67 59.5066 58.4934 51 48 51C37.5066 51 29 59.5066 29 70Z" stroke="#781C1C" stroke-width="8"/>
<path d="M60.5227 57.4773L34.1818 83.8182M29 70C29 80.4934 37.5066 89 48 89C58.4934 89 67 80.4934 67 70C67 59.5066 58.4934 51 48 51C37.5066 51 29 59.5066 29 70Z" stroke="url(#paint1_linear_102_2)" stroke-width="5"/>
<defs>
<linearGradient id="paint0_linear_102_2" x1="1" y1="10" x2="95" y2="40" gradientUnits="userSpaceOnUse">
<stop stop-color="#7981F6"/>
<stop offset="1" stop-color="#4049E0"/>
</linearGradient>
<linearGradient id="paint1_linear_102_2" x1="36.3625" y1="43.6375" x2="59.875" y2="91.375" gradientUnits="userSpaceOnUse">
<stop stop-color="#FC7979"/>
<stop offset="1" stop-color="#DD4D4D"/>
</linearGradient>
</defs>
</svg>
