<svg width="25" height="24" viewBox="0 0 25 24" fill="none" xmlns="http://www.w3.org/2000/svg">
<path d="M16.4359 12.7835C16.4292 11.5556 16.9846 10.6288 18.1088 9.94631C17.4798 9.04631 16.5296 8.55114 15.2749 8.45411C14.0872 8.36043 12.789 9.14668 12.3139 9.14668C11.8121 9.14668 10.6612 8.48757 9.7578 8.48757C7.89088 8.51768 5.90686 9.97642 5.90686 12.9441C5.90686 13.8207 6.06746 14.7263 6.38865 15.6608C6.8169 16.8887 8.36263 19.8999 9.97528 19.8497C10.8184 19.8296 11.4139 19.2508 12.5113 19.2508C13.5753 19.2508 14.1273 19.8497 15.0675 19.8497C16.6935 19.8263 18.092 17.0895 18.5002 15.8582C16.3188 14.8311 16.4359 12.8471 16.4359 12.7835ZM14.5422 7.28979C15.4556 6.20578 15.372 5.21878 15.3452 4.86414C14.5389 4.91098 13.6054 5.41284 13.0734 6.0318C12.4879 6.69425 12.1433 7.51396 12.2169 8.43738C13.0902 8.5043 13.8864 8.05597 14.5422 7.28979Z" fill="black"/>
</svg>
