<svg width="24" height="24" viewBox="0 0 24 24" fill="none" xmlns="http://www.w3.org/2000/svg">
<path d="M21.6665 16.4074C21.6665 16.9575 21.448 17.485 21.0591 17.874C20.6701 18.263 20.1425 18.4815 19.5925 18.4815H5.07395C4.52387 18.4815 3.99632 18.263 3.60736 17.874C3.2184 17.485 2.99988 16.9575 2.99988 16.4074V7.07407C2.99988 6.524 3.2184 5.99645 3.60736 5.60748C3.99632 5.21852 4.52387 5 5.07395 5H19.5925C20.1425 5 20.6701 5.21852 21.0591 5.60748C21.448 5.99645 21.6665 6.524 21.6665 7.07407V16.4074Z" fill="#032EA1"/>
<path d="M2.99988 8.14844H21.6665V15.851H2.99988V8.14844Z" fill="#E01E24"/>
<path d="M16.6775 14.5393V14.0716H16.3965V13.6044H16.1393V13.3005H16.0221V13.0667H15.795L15.6716 12.8899V12.0607L15.8121 11.9202V11.1487L15.6949 11.2539V11.0082H15.6011V11.1253H15.4149V10.7504L15.1925 10.9496L15.263 10.6981L15.1339 10.1194H15.0634C15.0634 10.1194 15.0058 9.87363 14.8886 9.87363C14.8886 9.87363 14.9353 9.72223 14.8415 9.72223C14.7476 9.72223 14.7709 9.83889 14.7709 9.83889C14.7709 9.83889 14.6076 9.90941 14.6076 10.0842L14.5143 10.0727L14.3738 10.7504L14.4728 10.9496L14.2446 10.7504V11.2653H13.0059V10.7976L12.9354 10.8676V11.0315H12.772V10.8676L12.8892 10.7624V10.5404L12.7949 10.6395L12.6543 10.4466V10.2827L12.5729 10.3642L12.5491 10.2242L12.6663 10.0375L12.6486 9.88556L12.5149 10.0489V9.90889L12.5735 9.7803L12.3043 9.10156L12.24 8.91386L12.141 8.90245V8.8086C12.141 8.8086 12.0705 8.64526 11.9772 8.64526C11.8838 8.64526 11.8138 8.8086 11.8138 8.8086V8.90245L11.7148 8.91386L11.65 9.10156L11.3814 9.7803L11.44 9.90889V10.0489L11.3057 9.88556L11.2875 10.0375L11.4047 10.2242L11.3819 10.3642L11.3 10.2827V10.4466L11.16 10.6395L11.0661 10.5404V10.7624L11.1833 10.8676V11.0315H11.02V10.8676L10.9495 10.7976V11.2653H9.70812V10.7504L9.47997 10.9496L9.57901 10.7504L9.43849 10.0727L9.34464 10.0842C9.34464 9.90941 9.18131 9.83889 9.18131 9.83889C9.18131 9.83889 9.20464 9.72223 9.11079 9.72223C9.01746 9.72223 9.06412 9.87363 9.06412 9.87363C8.94694 9.87363 8.88886 10.1194 8.88886 10.1194H8.81886L8.69027 10.6981L8.76027 10.9496L8.53834 10.7504V11.1248H8.35116V11.0076H8.25731V11.2534L8.14064 11.1482V11.9197L8.28064 12.0602V12.8893L8.15672 13.0662H7.97627V13.3H7.81346V13.6039H7.57909V14.071H7.32242V14.5387H7.06472L7.04138 15.0526H16.9114L16.9347 14.5387L16.6775 14.5393Z" fill="white"/>
<path d="M8.67937 11.9321V12.8317H8.25782L8.15723 13.0277H8.67937V15.0535H8.85671V11.9321H8.67937ZM15.7992 13.0277L15.7069 12.8317H15.3252V11.9321H15.15V15.0535H15.3252V13.0277H15.7992ZM11.5359 11.9321V12.8317H9.62152V11.9269H9.45041V15.0484H9.62152V13.0277H11.5359V15.0535H11.7189V11.9321H11.5359ZM14.339 11.9321V12.8317H12.4729V11.9321H12.2919V15.0535H12.4729V13.0277H14.339V15.0535H14.5604V11.9321H14.339Z" fill="#DB7F86"/>
</svg>
