<svg width="972" height="502" viewBox="0 0 972 502" fill="none" xmlns="http://www.w3.org/2000/svg">
<path d="M102.721 389C102.721 389 83.721 306 125.721 199" stroke="#535361" stroke-width="3" stroke-miterlimit="10"/>
<path d="M28.7201 364H175.72C175.72 364 204.72 401 159.72 456H43.7201C43.7201 456 1.72007 418 28.7201 364Z" fill="#4049DF"/>
<path d="M0 455.601H971.44V488.531H0V455.601Z" fill="#A5A0A0"/>
<path d="M41.1602 488.53H930.269V502H41.1602V488.53Z" fill="#A5A0A0"/>
<path d="M835.72 321H851.72V421H835.72V321Z" fill="#535361"/>
<path d="M835.72 288H851.72V321H835.72V288Z" fill="#3AD19E"/>
<path d="M857.72 329H873.72V429H857.72V329Z" fill="#535361"/>
<path d="M857.72 296H873.72V329H857.72V296Z" fill="#4D8AF0"/>
<path d="M884.72 346H900.72V446H884.72V346Z" fill="#535361"/>
<path d="M884.72 313H900.72V346H884.72V313Z" fill="#F55E44"/>
<path d="M821.72 352H913.72V431.5C913.72 444.479 903.199 455 890.22 455H845.22C832.241 455 821.72 444.479 821.72 431.5V352Z" fill="#4049DF"/>
<path d="M407.72 371H563.72V456H407.72V371Z" fill="#BDBDBD"/>
<path d="M406.04 380.5L565.46 380C567.269 372.13 564.22 367 564.22 367H407.22C407.22 367 404.08 372.609 406.04 380.5Z" fill="black" fill-opacity="0.2"/>
<path d="M235.82 3H735.62C744.512 3 751.72 10.208 751.72 19.1V327H219.72V19.1C219.72 10.208 226.928 3 235.82 3Z" fill="#535361"/>
<path d="M735.62 377H235.82C226.928 377 219.72 369.792 219.72 360.899V327H751.72V360.899C751.72 369.792 744.512 377 735.62 377Z" fill="#BDBDBD"/>
<path d="M485.72 343C490.69 343 494.72 347.029 494.72 352C494.72 356.971 490.69 361 485.72 361C480.749 361 476.72 356.971 476.72 352C476.72 347.029 480.749 343 485.72 343Z" fill="#535361"/>
<path d="M399.89 436H571.55C576.062 436 579.72 439.657 579.72 444.17V456H391.72V444.17C391.72 439.657 395.378 436 399.89 436Z" fill="#BDBDBD"/>
<path d="M408.22 438.5H564.22V435.5H408.22V438.5ZM0 0H971.44V502H0V0ZM0 502H971.44V0H0V502Z" fill="black" fill-opacity="0.2"/>
<path d="M99.4811 342.696C99.4811 342.696 95.9188 301.48 140.012 294.012C140.012 294.012 123.249 351.304 99.1968 361.264L99.4811 342.696Z" fill="#4DB5AB"/>
<path d="M99.1937 361.524C99.1937 361.524 123.989 295.819 140.012 294.012" stroke="#535361" stroke-miterlimit="10"/>
<path d="M100.565 302.663C100.565 302.663 106.806 273.606 72.1349 246.185C72.1349 246.185 33.3565 310.392 98.6848 323.342L100.565 302.663Z" fill="#4DB5AB"/>
<path d="M72.1348 246.185C72.1348 246.185 86.3122 314.362 98.2026 323.506" stroke="#535361" stroke-miterlimit="10"/>
<path d="M105.037 271.382C105.037 271.382 110.723 243.589 166.864 232.267C166.864 232.267 148.309 289.667 102.27 286.799L105.037 271.382Z" fill="#4DB5AB"/>
<path d="M102.204 286.489C102.204 286.489 148.793 238.048 166.864 232.266" stroke="#535361" stroke-miterlimit="10"/>
<path d="M123.787 204.572C123.787 204.572 138.71 178.751 173.61 187.173C173.61 187.173 144.087 236.08 118.214 219.636L123.787 204.572Z" fill="#4DB5AB"/>
<path d="M118.709 220.012C118.709 220.012 157.057 191.473 173.116 186.667" stroke="#535361" stroke-miterlimit="10"/>
<path d="M290.382 49.505H681.057C684.164 49.505 686.682 52.0238 686.682 55.13V273.83C686.682 276.936 684.164 279.455 681.057 279.455H290.382C287.276 279.455 284.757 276.936 284.757 273.83V55.13C284.757 52.0238 287.276 49.505 290.382 49.505Z" fill="white"/>
<path d="M114.5 232.13C114.5 232.13 113.692 205.528 84.7783 198.178C84.7783 198.178 87.0774 256.21 110.191 246.989L114.5 232.13Z" fill="#4DB5AB"/>
<path d="M84.7783 198.178C84.7783 198.178 112.317 236.514 110.197 246.489" stroke="#535361" stroke-miterlimit="10"/>
<mask id="mask0_108_21" style="mask-type:luminance" maskUnits="userSpaceOnUse" x="414" y="90" width="143" height="149">
<path d="M414.52 90V238.5H556.92V90H414.52Z" fill="white"/>
</mask>
<g mask="url(#mask0_108_21)">
<path d="M419.02 99.62H445.46C447.945 99.62 449.96 101.635 449.96 104.12V127.02C449.96 129.505 447.945 131.52 445.46 131.52H419.02C416.535 131.52 414.52 129.505 414.52 127.02V104.12C414.52 101.635 416.535 99.62 419.02 99.62Z" fill="#4049DF"/>
<path d="M462.36 99.62H554.51C555.487 99.62 556.28 100.412 556.28 101.39C556.28 102.368 555.487 103.16 554.51 103.16H462.36C461.382 103.16 460.59 102.368 460.59 101.39C460.59 100.412 461.382 99.62 462.36 99.62Z" fill="#DFDFDF"/>
<path d="M462.36 110.25H554.51C555.487 110.25 556.28 111.042 556.28 112.02C556.28 112.998 555.487 113.79 554.51 113.79H462.36C461.382 113.79 460.59 112.998 460.59 112.02C460.59 111.042 461.382 110.25 462.36 110.25Z" fill="#DFDFDF"/>
<path d="M419.02 149.24H445.46C447.945 149.24 449.96 151.255 449.96 153.74V176.64C449.96 179.125 447.945 181.14 445.46 181.14H419.02C416.535 181.14 414.52 179.125 414.52 176.64V153.74C414.52 151.255 416.535 149.24 419.02 149.24Z" fill="#4049DF"/>
<path d="M462.36 149.24H554.51C555.487 149.24 556.28 150.032 556.28 151.01C556.28 151.988 555.487 152.78 554.51 152.78H462.36C461.382 152.78 460.59 151.988 460.59 151.01C460.59 150.032 461.382 149.24 462.36 149.24Z" fill="#DFDFDF"/>
<path d="M462.18 159.87H555.33C556.208 159.87 556.92 160.582 556.92 161.46V161.82C556.92 162.698 556.208 163.41 555.33 163.41H462.18C461.302 163.41 460.59 162.698 460.59 161.82V161.46C460.59 160.582 461.302 159.87 462.18 159.87Z" fill="#DFDFDF"/>
<path d="M419.02 200H445.46C447.945 200 449.96 202.015 449.96 204.5V227.4C449.96 229.885 447.945 231.9 445.46 231.9H419.02C416.535 231.9 414.52 229.885 414.52 227.4V204.5C414.52 202.015 416.535 200 419.02 200Z" fill="#4049DF"/>
<path d="M462.36 199.999H554.51C555.487 199.999 556.28 200.792 556.28 201.77C556.28 202.748 555.487 203.541 554.51 203.541H462.36C461.382 203.541 460.59 202.748 460.59 201.77C460.59 200.792 461.382 199.999 462.36 199.999Z" fill="#DFDFDF"/>
<path d="M462.36 210.64H538.36C539.338 210.64 540.13 211.433 540.13 212.411C540.13 213.388 539.338 214.18 538.36 214.18H462.36C461.382 214.18 460.59 213.388 460.59 212.411C460.59 211.433 461.382 210.64 462.36 210.64Z" fill="#DFDFDF"/>
</g>
<path d="M637.22 164.5C639.429 164.5 641.22 166.291 641.22 168.5C641.22 170.709 639.429 172.5 637.22 172.5C635.011 172.5 633.22 170.709 633.22 168.5C633.22 166.291 635.011 164.5 637.22 164.5Z" fill="#4049DF"/>
<path d="M637.22 168.5H714.182" stroke="#4049DF" stroke-width="2" stroke-miterlimit="10"/>
<path d="M333.22 164.5C335.429 164.5 337.22 166.291 337.22 168.5C337.22 170.709 335.429 172.5 333.22 172.5C331.011 172.5 329.22 170.709 329.22 168.5C329.22 166.291 331.011 164.5 333.22 164.5Z" fill="#4049DF"/>
<path d="M301.978 168.5H262.47" stroke="#4049DF" stroke-width="2.23986" stroke-miterlimit="10"/>
<path d="M336.47 168.5H300.26" stroke="#4049DF" stroke-width="2.23986" stroke-miterlimit="10"/>
<path d="M485.72 247C487.928 247 489.72 248.791 489.72 251C489.72 253.209 487.928 255 485.72 255C483.511 255 481.72 253.209 481.72 251C481.72 248.791 483.511 247 485.72 247Z" fill="#4049DF"/>
<path d="M485.72 279V310" stroke="#4049DF" stroke-width="2" stroke-miterlimit="10"/>
<path d="M485.72 251V279.87" stroke="#4049DF" stroke-width="2" stroke-miterlimit="10"/>
<path d="M485.72 75C487.928 75 489.72 76.791 489.72 79C489.72 81.209 487.928 83 485.72 83C483.511 83 481.72 81.209 481.72 79C481.72 76.791 483.511 75 485.72 75Z" fill="#4049DF"/>
<path d="M485.72 79V17.883" stroke="#4049DF" stroke-width="2" stroke-miterlimit="10"/>
<path d="M707.06 163.96C709.53 163.96 711.535 165.965 711.535 168.435C711.535 170.905 709.53 172.91 707.06 172.91C704.59 172.91 702.584 170.905 702.584 168.435C702.584 165.965 704.59 163.96 707.06 163.96Z" fill="#535361"/>
<path d="M707.06 163.96C709.53 163.96 711.535 165.965 711.535 168.435C711.535 170.905 709.53 172.91 707.06 172.91C704.59 172.91 702.584 170.905 702.584 168.435C702.584 165.965 704.59 163.96 707.06 163.96Z" stroke="white" stroke-width="1.10231"/>
<path d="M486.06 19.9596C488.53 19.9596 490.535 21.965 490.535 24.435C490.535 26.9049 488.53 28.9104 486.06 28.9104C483.59 28.9104 481.584 26.9049 481.584 24.435C481.584 21.965 483.59 19.9596 486.06 19.9596Z" fill="#535361"/>
<path d="M486.06 19.9596C488.53 19.9596 490.535 21.965 490.535 24.435C490.535 26.9049 488.53 28.9104 486.06 28.9104C483.59 28.9104 481.584 26.9049 481.584 24.435C481.584 21.965 483.59 19.9596 486.06 19.9596Z" stroke="white" stroke-width="1.10231"/>
</svg>
