<svg width="972" height="502" viewBox="0 0 972 502" fill="none" xmlns="http://www.w3.org/2000/svg">
<path d="M102.721 389C102.721 389 83.721 306 125.721 199" stroke="#535361" stroke-width="3" stroke-miterlimit="10"/>
<path d="M28.7201 364H175.72C175.72 364 204.72 401 159.72 456H43.7201C43.7201 456 1.72007 418 28.7201 364Z" fill="#4049DF"/>
<path d="M0 455.601H971.44V488.531H0V455.601Z" fill="#A5A0A0"/>
<path d="M41.1602 488.53H930.269V502H41.1602V488.53Z" fill="#A5A0A0"/>
<path d="M835.72 321H851.72V421H835.72V321Z" fill="#535361"/>
<path d="M835.72 288H851.72V321H835.72V288Z" fill="#3AD19E"/>
<path d="M857.72 329H873.72V429H857.72V329Z" fill="#535361"/>
<path d="M857.72 296H873.72V329H857.72V296Z" fill="#4D8AF0"/>
<path d="M884.72 346H900.72V446H884.72V346Z" fill="#535361"/>
<path d="M884.72 313H900.72V346H884.72V313Z" fill="#F55E44"/>
<path d="M821.72 352H913.72V431.5C913.72 444.479 903.199 455 890.22 455H845.22C832.241 455 821.72 444.479 821.72 431.5V352Z" fill="#4049DF"/>
<path d="M407.72 371H563.72V456H407.72V371Z" fill="#BDBDBD"/>
<path d="M406.04 380.5L565.46 380C567.269 372.13 564.22 367 564.22 367H407.22C407.22 367 404.08 372.609 406.04 380.5Z" fill="black" fill-opacity="0.2"/>
<path d="M235.82 3H735.62C744.512 3 751.72 10.208 751.72 19.1V327H219.72V19.1C219.72 10.208 226.928 3 235.82 3Z" fill="#535361"/>
<path d="M735.62 377H235.82C226.928 377 219.72 369.792 219.72 360.899V327H751.72V360.899C751.72 369.792 744.512 377 735.62 377Z" fill="#BDBDBD"/>
<path d="M485.72 343C490.69 343 494.72 347.029 494.72 352C494.72 356.971 490.69 361 485.72 361C480.749 361 476.72 356.971 476.72 352C476.72 347.029 480.749 343 485.72 343Z" fill="#535361"/>
<path d="M399.89 436H571.55C576.062 436 579.72 439.657 579.72 444.17V456H391.72V444.17C391.72 439.657 395.378 436 399.89 436Z" fill="#BDBDBD"/>
<path d="M408.22 438.5H564.22V435.5H408.22V438.5ZM0 0H971.44V502H0V0ZM0 502H971.44V0H0V502Z" fill="black" fill-opacity="0.2"/>
<path d="M99.8439 342.749C99.8439 342.749 97.1822 301.465 141.428 294.962C141.428 294.962 123.418 351.874 99.1543 361.307L99.8439 342.749Z" fill="#4DB5AB"/>
<path d="M99.1455 361.567C99.1455 361.567 125.37 296.418 141.428 294.962" stroke="#535361" stroke-miterlimit="10"/>
<path d="M100.988 302.73C100.988 302.73 107.862 273.816 73.7979 245.645C73.7979 245.645 33.627 308.989 98.657 323.363L100.988 302.73Z" fill="#4DB5AB"/>
<path d="M73.7979 245.645C73.7979 245.645 86.4836 314.114 98.1715 323.516" stroke="#535361" stroke-miterlimit="10"/>
<path d="M105.338 271.426C105.338 271.426 111.63 243.764 168.005 233.67C168.005 233.67 148.201 290.651 102.236 286.779L105.338 271.426Z" fill="#4DB5AB"/>
<path d="M102.177 286.467C102.177 286.467 149.812 239.055 168.005 233.669" stroke="#535361" stroke-miterlimit="10"/>
<path d="M124.103 204.708C124.103 204.708 139.586 179.218 174.294 188.401C174.294 188.401 143.711 236.651 118.203 219.647L124.103 204.708Z" fill="#4DB5AB"/>
<path d="M118.69 220.033C118.69 220.033 157.651 192.338 173.812 187.884" stroke="#535361" stroke-miterlimit="10"/>
<path d="M114.769 232.205C114.769 232.205 114.541 205.592 85.7954 197.612C85.7954 197.612 86.8271 255.681 110.136 246.966L114.769 232.205Z" fill="#4DB5AB"/>
<path d="M85.7954 197.612C85.7954 197.612 112.491 236.54 110.153 246.466" stroke="#535361" stroke-miterlimit="10"/>
</svg>
