<svg id="svg" version="1.1" xmlns="http://www.w3.org/2000/svg" xmlns:xlink="http://www.w3.org/1999/xlink" width="400" height="400" viewBox="0, 0, 400,400"><g id="svgg"><path id="path0" d="M82.890 226.500 C 82.451 227.435,80.922 230.810,79.491 234.000 C 78.060 237.190,76.439 240.790,75.890 242.000 C 75.340 243.210,74.492 245.100,74.007 246.200 C 73.098 248.261,71.923 250.840,70.227 254.500 C 69.692 255.655,69.197 256.870,69.127 257.200 C 69.015 257.729,73.969 257.824,111.200 258.000 C 158.046 258.222,153.977 257.953,157.000 261.027 C 158.506 262.558,159.600 264.976,159.600 266.775 C 159.600 267.208,159.761 267.976,159.958 268.481 C 160.155 268.987,160.549 270.210,160.833 271.200 C 162.339 276.449,166.359 283.091,170.601 287.338 C 194.447 311.209,233.425 299.476,240.820 266.200 C 241.672 262.368,242.743 260.730,245.450 259.121 L 247.000 258.200 289.100 258.089 C 312.255 258.029,331.200 257.837,331.200 257.665 C 331.200 257.492,330.860 256.641,330.443 255.775 C 330.027 254.909,328.391 251.320,326.807 247.800 C 325.223 244.280,323.313 240.079,322.563 238.464 C 321.814 236.850,321.200 235.450,321.200 235.353 C 321.200 235.256,320.590 233.877,319.843 232.289 C 319.097 230.700,318.020 228.365,317.449 227.100 L 316.411 224.800 200.049 224.800 L 83.688 224.800 82.890 226.500 M122.200 317.386 C 115.954 319.613,115.061 328.067,120.662 331.938 L 122.200 333.000 141.600 333.000 C 163.732 333.000,162.565 333.177,165.100 329.431 C 167.589 325.753,166.587 320.882,162.800 318.251 L 161.000 317.000 142.400 316.908 C 127.134 316.832,123.513 316.918,122.200 317.386 M121.800 350.787 C 114.073 354.502,115.699 365.555,124.126 366.608 C 128.561 367.162,144.092 366.618,145.481 365.859 C 151.613 362.513,151.338 353.821,145.007 350.845 C 142.378 349.610,124.343 349.564,121.800 350.787 M14.093 388.400 C 14.368 388.840,14.819 389.200,15.096 389.200 C 15.373 389.200,15.600 389.454,15.600 389.765 C 15.600 390.075,15.905 390.284,16.278 390.230 C 17.479 390.053,17.254 389.370,15.807 388.803 C 15.033 388.499,14.400 388.104,14.400 387.925 C 14.400 387.746,14.218 387.600,13.997 387.600 C 13.757 387.600,13.797 387.926,14.093 388.400 M385.300 388.144 C 384.805 388.389,384.400 388.727,384.400 388.895 C 384.400 389.351,384.654 389.277,386.090 388.401 C 387.459 387.567,386.860 387.372,385.300 388.144 M382.800 389.600 C 382.800 389.820,382.470 390.000,382.067 390.000 C 381.663 390.000,381.333 390.231,381.333 390.514 C 381.333 390.797,381.663 391.029,382.067 391.029 C 382.470 391.029,382.800 390.776,382.800 390.468 C 382.800 390.111,383.080 389.980,383.570 390.108 C 384.110 390.249,384.277 390.144,384.127 389.755 C 383.884 389.121,382.800 388.995,382.800 389.600 M17.200 390.485 C 17.200 390.784,17.562 391.029,18.005 391.029 C 18.950 391.029,18.839 390.259,17.867 390.071 C 17.500 390.000,17.200 390.186,17.200 390.485 M19.200 391.200 C 19.200 391.420,19.751 391.600,20.424 391.600 C 21.137 391.600,21.544 391.433,21.400 391.200 C 21.264 390.980,20.713 390.800,20.176 390.800 C 19.639 390.800,19.200 390.980,19.200 391.200 M378.600 391.200 C 378.460 391.427,378.796 391.600,379.376 391.600 C 379.939 391.600,380.400 391.420,380.400 391.200 C 380.400 390.980,380.051 390.800,379.624 390.800 C 379.197 390.800,378.736 390.980,378.600 391.200 M23.500 391.524 C 14.513 392.268,40.491 392.397,200.000 392.399 C 318.661 392.401,378.000 392.268,378.000 392.001 C 378.000 391.780,377.415 391.600,376.700 391.600 C 375.985 391.599,296.560 391.554,200.200 391.500 C 103.840 391.445,24.325 391.456,23.500 391.524 " stroke="none" fill="#4494ec" fill-rule="evenodd"></path><path id="path1" d="M192.800 8.000 C 192.800 8.233,191.475 8.400,189.624 8.400 C 187.877 8.400,186.343 8.569,186.215 8.775 C 186.088 8.982,185.591 9.075,185.112 8.983 C 184.633 8.891,183.512 9.006,182.621 9.239 C 181.729 9.473,180.280 9.850,179.400 10.077 C 177.758 10.502,176.329 11.024,175.105 11.647 C 174.723 11.841,173.958 12.000,173.405 12.000 C 172.852 12.000,172.400 12.180,172.400 12.400 C 172.400 12.620,172.040 12.800,171.600 12.800 C 171.160 12.800,170.800 12.980,170.800 13.200 C 170.800 13.420,170.361 13.600,169.824 13.600 C 169.287 13.600,168.736 13.780,168.600 14.000 C 168.464 14.220,168.003 14.400,167.576 14.400 C 167.149 14.400,166.800 14.580,166.800 14.800 C 166.800 15.020,166.440 15.200,166.000 15.200 C 165.560 15.200,165.200 15.380,165.200 15.600 C 165.200 15.820,164.840 16.000,164.400 16.000 C 163.960 16.000,163.600 16.180,163.600 16.400 C 163.600 16.620,163.330 16.800,163.000 16.800 C 162.670 16.800,162.400 16.980,162.400 17.200 C 162.400 17.420,162.130 17.600,161.800 17.600 C 161.470 17.600,161.200 17.736,161.200 17.902 C 161.200 18.069,160.659 18.444,159.998 18.737 C 159.336 19.030,158.897 19.434,159.021 19.635 C 159.146 19.836,158.877 20.000,158.424 20.000 C 157.971 20.000,157.600 20.150,157.600 20.332 C 157.600 20.515,157.105 20.919,156.500 21.230 C 155.895 21.540,155.109 22.111,154.753 22.497 C 154.397 22.884,153.947 23.202,153.753 23.205 C 152.490 23.223,139.600 36.149,139.600 37.398 C 139.600 37.632,139.240 38.083,138.800 38.400 C 138.360 38.717,138.000 39.257,138.000 39.600 C 138.000 39.943,137.640 40.483,137.200 40.800 C 136.760 41.117,136.400 41.707,136.400 42.112 C 136.400 42.516,136.220 42.736,136.000 42.600 C 135.780 42.464,135.600 42.633,135.600 42.976 C 135.600 43.319,135.420 43.600,135.200 43.600 C 134.980 43.600,134.800 43.971,134.800 44.424 C 134.800 44.877,134.620 45.136,134.400 45.000 C 134.180 44.864,134.000 45.123,134.000 45.576 C 134.000 46.029,133.820 46.400,133.600 46.400 C 133.380 46.400,133.200 46.760,133.200 47.200 C 133.200 47.640,133.020 48.000,132.800 48.000 C 132.580 48.000,132.400 48.360,132.400 48.800 C 132.400 49.240,132.220 49.600,132.000 49.600 C 131.780 49.600,131.600 49.960,131.600 50.400 C 131.600 50.840,131.420 51.200,131.200 51.200 C 130.980 51.200,130.800 51.560,130.800 52.000 C 130.800 52.440,130.609 52.800,130.376 52.800 C 130.143 52.800,130.048 52.953,130.164 53.141 C 130.280 53.329,130.116 53.824,129.800 54.241 C 129.484 54.658,129.220 55.405,129.213 55.900 C 129.206 56.395,129.020 56.800,128.800 56.800 C 128.580 56.800,128.400 57.340,128.400 58.000 C 128.400 58.660,128.220 59.200,128.000 59.200 C 127.780 59.200,127.600 59.639,127.600 60.176 C 127.600 60.713,127.420 61.264,127.200 61.400 C 126.980 61.536,126.800 62.256,126.800 63.000 C 126.800 63.744,126.644 64.449,126.453 64.567 C 126.080 64.798,125.590 67.550,125.432 70.299 C 125.379 71.233,125.215 72.118,125.068 72.266 C 124.718 72.615,124.718 93.785,125.068 94.134 C 125.215 94.282,125.379 95.167,125.432 96.101 C 125.590 98.850,126.080 101.602,126.453 101.833 C 126.644 101.951,126.800 102.656,126.800 103.400 C 126.800 104.144,126.980 104.864,127.200 105.000 C 127.420 105.136,127.600 105.599,127.600 106.029 C 127.600 106.459,127.780 107.168,128.000 107.605 C 128.220 108.042,128.580 108.758,128.800 109.195 C 129.020 109.632,129.200 110.352,129.200 110.795 C 129.200 111.238,129.380 111.600,129.600 111.600 C 129.820 111.600,130.000 112.050,130.000 112.600 C 130.000 113.150,130.180 113.600,130.400 113.600 C 130.620 113.600,130.800 113.888,130.800 114.239 C 130.800 114.591,131.411 115.446,132.158 116.139 C 132.905 116.833,134.079 118.453,134.767 119.741 C 141.374 132.106,154.052 144.044,167.212 150.294 C 172.735 152.917,181.395 156.000,183.240 156.000 C 183.580 156.000,184.655 156.278,185.629 156.618 L 187.400 157.236 192.200 166.918 C 196.589 175.772,197.128 176.668,198.500 177.400 L 200.000 178.200 201.500 177.400 C 202.872 176.668,203.408 175.775,207.800 166.903 L 212.600 157.205 214.600 156.625 C 215.700 156.305,218.130 155.639,220.000 155.145 C 227.967 153.039,238.028 148.257,243.992 143.740 C 252.728 137.123,260.767 128.048,265.232 119.762 C 265.932 118.463,267.111 116.794,267.852 116.054 C 268.593 115.314,269.200 114.459,269.200 114.154 C 269.200 113.849,269.380 113.600,269.600 113.600 C 269.820 113.600,270.000 113.240,270.000 112.800 C 270.000 112.360,270.141 112.000,270.313 112.000 C 270.485 112.000,270.666 111.505,270.716 110.900 C 270.766 110.295,270.985 109.740,271.203 109.667 C 271.422 109.593,271.600 109.109,271.600 108.590 C 271.600 108.072,271.780 107.536,272.000 107.400 C 272.220 107.264,272.400 106.724,272.400 106.200 C 272.400 105.676,272.560 105.148,272.756 105.027 C 272.951 104.906,273.211 104.221,273.331 103.504 C 273.452 102.787,273.759 101.210,274.014 100.000 C 274.268 98.790,274.573 97.260,274.690 96.600 C 275.168 93.918,275.248 74.333,274.795 71.105 C 274.539 69.287,274.237 67.124,274.123 66.297 C 274.009 65.471,273.755 64.695,273.558 64.574 C 273.361 64.452,273.200 63.733,273.200 62.976 C 273.200 62.219,273.020 61.600,272.800 61.600 C 272.580 61.600,272.400 61.060,272.400 60.400 C 272.400 59.740,272.220 59.200,272.000 59.200 C 271.780 59.200,271.600 58.761,271.600 58.224 C 271.600 57.687,271.420 57.136,271.200 57.000 C 270.980 56.864,270.800 56.409,270.800 55.989 C 270.800 55.568,270.440 54.583,270.000 53.800 C 269.560 53.017,269.200 52.111,269.200 51.788 C 269.200 51.465,269.020 51.200,268.800 51.200 C 268.580 51.200,268.400 50.840,268.400 50.400 C 268.400 49.960,268.220 49.600,268.000 49.600 C 267.780 49.600,267.600 49.240,267.600 48.800 C 267.600 48.360,267.420 48.000,267.200 48.000 C 266.980 48.000,266.800 47.640,266.800 47.200 C 266.800 46.760,266.620 46.400,266.400 46.400 C 266.180 46.400,266.000 46.040,266.000 45.600 C 266.000 45.160,265.820 44.800,265.600 44.800 C 265.380 44.800,265.200 44.530,265.200 44.200 C 265.200 43.870,265.020 43.600,264.800 43.600 C 264.580 43.600,264.400 43.330,264.400 43.000 C 264.400 42.670,264.220 42.400,264.000 42.400 C 263.780 42.400,263.600 42.170,263.600 41.888 C 263.600 41.607,263.240 41.117,262.800 40.800 C 262.360 40.483,262.000 39.975,262.000 39.672 C 262.000 39.369,261.460 38.617,260.800 38.000 C 260.140 37.383,259.600 36.726,259.600 36.540 C 259.599 36.173,258.512 34.786,256.117 32.097 C 253.793 29.487,253.451 29.147,251.000 27.000 C 249.744 25.900,248.294 24.595,247.777 24.100 C 247.259 23.605,246.647 23.200,246.415 23.200 C 246.183 23.200,245.428 22.660,244.737 22.000 C 244.046 21.340,243.304 20.800,243.088 20.800 C 242.871 20.800,242.403 20.471,242.047 20.070 C 241.691 19.668,240.815 19.084,240.100 18.772 C 239.385 18.460,238.800 18.069,238.800 17.902 C 238.800 17.736,238.530 17.600,238.200 17.600 C 237.870 17.600,237.600 17.456,237.600 17.280 C 237.600 17.105,236.970 16.733,236.200 16.454 C 235.430 16.176,234.800 15.780,234.800 15.574 C 234.800 15.368,234.440 15.200,234.000 15.200 C 233.560 15.200,233.200 15.020,233.200 14.800 C 233.200 14.580,232.851 14.400,232.424 14.400 C 231.997 14.400,231.536 14.220,231.400 14.000 C 231.264 13.780,230.713 13.600,230.176 13.600 C 229.639 13.600,229.200 13.420,229.200 13.200 C 229.200 12.980,228.840 12.800,228.400 12.800 C 227.960 12.800,227.600 12.620,227.600 12.400 C 227.600 12.180,227.060 12.000,226.400 12.000 C 225.740 12.000,225.200 11.809,225.200 11.576 C 225.200 11.343,225.052 11.244,224.871 11.356 C 224.691 11.468,224.040 11.298,223.426 10.980 C 222.811 10.661,221.967 10.400,221.549 10.400 C 221.131 10.400,220.477 10.241,220.095 10.047 C 218.648 9.313,215.257 8.718,211.300 8.505 C 209.045 8.384,207.200 8.131,207.200 7.943 C 207.200 7.754,203.960 7.600,200.000 7.600 C 195.467 7.600,192.800 7.748,192.800 8.000 M178.251 50.636 C 179.306 51.070,182.990 54.448,189.810 61.236 C 195.316 66.716,199.938 71.200,200.083 71.200 C 200.227 71.200,204.698 66.800,210.018 61.422 C 216.709 54.660,220.231 51.391,221.442 50.822 C 227.681 47.890,234.365 53.285,233.060 60.200 C 232.696 62.131,232.321 62.564,222.266 72.692 C 216.537 78.462,211.929 83.266,212.025 83.367 C 212.121 83.467,216.721 88.106,222.247 93.675 C 229.537 101.021,232.414 104.184,232.730 105.200 C 234.609 111.237,231.008 116.500,225.000 116.500 C 221.503 116.500,221.258 116.314,210.403 105.427 C 205.015 100.022,200.333 95.600,200.000 95.600 C 199.667 95.600,194.985 100.022,189.597 105.427 C 178.742 116.314,178.497 116.500,175.000 116.500 C 169.321 116.500,165.463 111.373,167.044 105.928 C 167.621 103.942,168.343 103.121,177.831 93.652 C 183.424 88.070,188.000 83.397,188.000 83.268 C 188.000 83.139,183.340 78.345,177.645 72.616 C 168.005 62.919,167.267 62.076,166.958 60.400 C 165.665 53.394,171.882 48.019,178.251 50.636 M39.934 317.171 C 37.404 317.675,35.856 318.936,34.391 321.684 C 33.636 323.101,33.600 323.995,33.609 341.484 C 33.622 368.930,30.237 366.400,66.938 366.400 C 96.552 366.400,95.206 366.522,97.694 363.615 C 99.959 360.970,100.000 360.570,100.000 341.249 C 100.000 320.747,100.010 320.808,96.000 317.985 L 94.600 317.000 68.000 316.939 C 53.370 316.906,40.740 317.010,39.934 317.171 M78.689 334.162 C 83.754 336.856,84.691 343.607,80.588 347.854 C 78.280 350.243,59.355 351.205,54.993 349.155 C 47.569 345.665,48.770 335.300,56.800 333.552 C 59.702 332.921,77.275 333.410,78.689 334.162 " stroke="none" fill="#e3eff9" fill-rule="evenodd"></path><path id="path2" d="M82.562 116.462 C 82.396 116.730,82.451 116.816,82.693 116.666 C 82.922 116.525,83.180 116.722,83.266 117.104 C 83.468 117.999,82.902 179.701,82.565 193.506 L 82.309 204.013 60.059 203.993 C 36.625 203.973,36.022 204.018,37.075 205.721 C 37.216 205.949,37.124 206.000,36.862 205.838 C 36.608 205.681,36.400 205.743,36.400 205.976 C 36.400 206.209,36.208 206.400,35.973 206.400 C 35.738 206.400,35.930 205.860,36.400 205.200 C 37.261 203.990,36.925 203.485,36.000 204.600 C 35.726 204.930,35.636 205.200,35.800 205.200 C 35.964 205.200,35.911 205.425,35.683 205.700 C 35.455 205.975,35.251 206.380,35.229 206.600 C 35.141 207.508,34.723 208.400,34.386 208.400 C 34.187 208.400,34.134 208.715,34.266 209.100 C 34.466 209.679,34.389 209.662,33.821 209.000 C 33.363 208.466,33.197 208.405,33.323 208.817 C 33.426 209.156,33.261 209.775,32.956 210.193 C 32.650 210.611,32.400 211.279,32.400 211.676 C 32.400 212.074,32.209 212.400,31.976 212.400 C 31.743 212.400,31.663 212.578,31.797 212.795 C 31.937 213.022,31.777 213.089,31.421 212.953 C 31.079 212.822,30.800 212.914,30.800 213.157 C 30.800 213.401,31.025 213.605,31.300 213.612 C 31.577 213.619,31.488 213.806,31.100 214.032 C 30.715 214.256,30.400 214.870,30.400 215.396 C 30.400 215.922,30.192 216.481,29.938 216.638 C 29.633 216.827,29.586 216.746,29.800 216.400 C 30.014 216.054,29.967 215.973,29.662 216.162 C 29.408 216.319,29.200 216.707,29.200 217.024 C 29.200 217.341,29.001 217.600,28.757 217.600 C 28.514 217.600,28.413 217.857,28.533 218.171 C 28.654 218.485,28.495 218.955,28.181 219.216 C 27.866 219.477,27.693 219.828,27.797 219.995 C 27.900 220.162,27.538 220.781,26.993 221.370 C 25.910 222.538,25.717 223.007,26.500 222.565 C 26.775 222.409,26.605 222.667,26.122 223.136 C 25.610 223.635,25.309 224.330,25.401 224.806 C 25.487 225.254,25.415 225.533,25.239 225.424 C 24.877 225.200,24.008 226.664,23.845 227.772 C 23.786 228.178,23.436 228.731,23.068 228.999 C 22.701 229.268,22.400 229.873,22.400 230.344 C 22.400 230.815,22.220 231.200,22.000 231.200 C 21.780 231.200,21.600 231.470,21.600 231.800 C 21.600 232.130,21.420 232.400,21.200 232.400 C 20.980 232.400,20.800 232.760,20.800 233.200 C 20.800 233.640,20.609 234.000,20.376 234.000 C 20.143 234.000,20.050 234.157,20.168 234.348 C 20.286 234.539,19.937 235.214,19.392 235.848 C 18.847 236.482,18.401 237.395,18.400 237.877 C 18.400 238.360,18.006 239.031,17.524 239.368 C 17.042 239.706,16.765 240.098,16.907 240.240 C 17.049 240.382,16.723 241.079,16.183 241.787 C 15.642 242.496,15.200 243.284,15.200 243.538 C 15.200 243.792,15.020 244.000,14.800 244.000 C 14.580 244.000,14.400 244.360,14.400 244.800 C 14.400 245.240,14.209 245.600,13.976 245.600 C 13.743 245.600,13.655 245.765,13.780 245.968 C 13.905 246.170,13.742 246.601,13.418 246.925 C 13.094 247.249,12.777 247.752,12.714 248.042 C 12.651 248.332,12.291 248.918,11.914 249.345 C 11.536 249.772,11.309 250.253,11.409 250.415 C 11.509 250.577,11.325 250.930,11.000 251.200 C 10.675 251.470,10.500 251.838,10.611 252.018 C 10.722 252.198,10.630 252.458,10.405 252.597 C 9.884 252.919,8.400 256.161,8.400 256.978 C 8.400 257.320,8.220 257.600,8.000 257.600 C 7.414 257.600,7.511 258.263,8.100 258.285 C 8.375 258.296,41.090 258.432,80.800 258.587 C 142.075 258.828,153.193 258.957,154.275 259.442 C 155.854 260.150,158.240 262.880,158.540 264.323 C 158.663 264.915,158.960 266.300,159.200 267.400 C 159.440 268.500,159.739 269.897,159.864 270.505 C 159.990 271.113,160.251 271.708,160.446 271.829 C 160.641 271.949,160.800 272.399,160.800 272.829 C 160.800 273.259,160.969 273.923,161.176 274.305 C 161.383 274.687,162.122 276.169,162.819 277.598 C 165.259 282.597,170.176 288.744,173.600 291.075 C 174.150 291.449,174.891 292.080,175.247 292.478 C 175.603 292.875,176.098 293.200,176.347 293.200 C 176.596 293.200,176.800 293.380,176.800 293.600 C 176.800 293.820,177.070 294.000,177.400 294.000 C 177.730 294.000,178.000 294.146,178.000 294.325 C 178.000 294.504,178.630 294.898,179.400 295.200 C 180.170 295.502,180.800 295.896,180.800 296.075 C 180.800 296.254,181.160 296.400,181.600 296.400 C 182.040 296.400,182.400 296.580,182.400 296.800 C 182.400 297.020,182.760 297.200,183.200 297.200 C 183.640 297.200,184.000 297.380,184.000 297.600 C 184.000 297.820,184.439 298.000,184.976 298.000 C 185.513 298.000,186.064 298.180,186.200 298.400 C 186.336 298.620,186.876 298.800,187.400 298.800 C 187.924 298.800,188.464 298.980,188.600 299.200 C 188.736 299.420,189.456 299.600,190.200 299.600 C 190.944 299.600,191.664 299.780,191.800 300.000 C 191.936 300.220,193.466 300.400,195.200 300.400 C 196.934 300.400,198.464 300.580,198.600 300.800 C 198.736 301.020,199.546 301.200,200.400 301.200 C 201.254 301.200,202.064 301.020,202.200 300.800 C 202.336 300.580,203.776 300.400,205.400 300.400 C 207.024 300.400,208.464 300.220,208.600 300.000 C 208.736 299.780,209.456 299.600,210.200 299.600 C 210.944 299.600,211.664 299.420,211.800 299.200 C 211.936 298.980,212.399 298.800,212.829 298.800 C 213.259 298.800,213.968 298.620,214.405 298.400 C 214.842 298.180,215.558 297.820,215.995 297.600 C 216.432 297.380,217.062 297.200,217.395 297.200 C 217.728 297.200,218.000 297.020,218.000 296.800 C 218.000 296.580,218.360 296.400,218.800 296.400 C 219.240 296.400,219.600 296.241,219.600 296.047 C 219.600 295.852,219.915 295.593,220.300 295.471 C 221.023 295.242,223.247 293.968,223.600 293.581 C 223.710 293.460,224.430 292.930,225.200 292.402 C 227.433 290.870,232.863 285.212,234.554 282.653 C 236.602 279.555,239.200 274.474,239.200 273.568 C 239.200 273.172,239.380 272.736,239.600 272.600 C 239.820 272.464,240.000 271.924,240.000 271.400 C 240.000 270.876,240.160 270.348,240.356 270.227 C 240.551 270.106,240.813 269.421,240.937 268.704 C 241.543 265.194,241.706 264.512,242.211 263.387 C 242.958 261.720,243.965 260.630,245.614 259.704 C 246.983 258.935,248.486 258.914,319.606 258.637 C 364.424 258.462,392.251 258.210,392.333 257.977 C 392.407 257.770,392.272 257.600,392.033 257.600 C 391.795 257.600,391.600 257.312,391.600 256.960 C 391.600 256.152,390.454 253.621,389.671 252.700 C 389.344 252.315,389.222 252.000,389.400 252.000 C 389.578 252.000,389.439 251.685,389.090 251.300 C 388.742 250.915,388.489 250.485,388.529 250.344 C 388.568 250.204,388.105 249.332,387.500 248.408 C 386.895 247.484,386.400 246.474,386.400 246.164 C 386.400 245.854,386.220 245.600,386.000 245.600 C 385.780 245.600,385.600 245.240,385.600 244.800 C 385.600 244.360,385.454 244.000,385.275 244.000 C 385.096 244.000,384.702 243.370,384.400 242.600 C 384.098 241.830,383.704 241.200,383.525 241.200 C 383.346 241.200,383.200 240.855,383.200 240.433 C 383.200 240.012,383.065 239.607,382.900 239.533 C 382.500 239.355,380.800 236.051,380.800 235.451 C 380.800 235.190,380.440 234.717,380.000 234.400 C 379.560 234.083,379.200 233.629,379.200 233.391 C 379.200 232.725,378.237 230.807,377.900 230.803 C 377.735 230.801,377.600 230.429,377.600 229.976 C 377.600 229.523,377.420 229.264,377.200 229.400 C 376.973 229.540,376.800 229.204,376.800 228.624 C 376.800 228.061,376.654 227.600,376.475 227.600 C 376.296 227.600,375.902 226.970,375.600 226.200 C 375.298 225.430,374.894 224.800,374.702 224.800 C 374.510 224.800,374.455 224.635,374.580 224.432 C 374.705 224.230,374.544 223.801,374.223 223.480 C 373.901 223.158,373.750 222.784,373.886 222.648 C 374.022 222.511,373.913 222.400,373.643 222.400 C 373.373 222.400,373.251 222.240,373.372 222.045 C 373.493 221.850,373.353 221.493,373.062 221.251 C 372.770 221.009,372.293 220.089,372.002 219.206 C 371.710 218.323,371.321 217.600,371.136 217.600 C 370.951 217.600,370.800 217.317,370.800 216.971 C 370.800 216.626,370.530 216.073,370.201 215.743 C 369.871 215.414,369.482 214.668,369.336 214.085 C 369.189 213.503,368.739 212.672,368.335 212.238 C 367.931 211.804,367.600 211.200,367.600 210.896 C 367.600 210.592,367.328 210.071,366.996 209.739 C 366.664 209.407,366.495 208.970,366.620 208.768 C 366.745 208.565,366.687 208.400,366.491 208.400 C 366.295 208.400,365.886 207.905,365.582 207.300 C 365.278 206.695,364.707 205.722,364.314 205.138 C 363.921 204.554,363.600 203.789,363.600 203.438 C 363.600 203.087,363.420 202.800,363.200 202.800 C 362.980 202.800,362.796 202.575,362.791 202.300 C 362.786 202.025,362.430 201.350,362.000 200.800 C 361.570 200.250,361.214 199.384,361.209 198.876 C 361.204 198.364,361.022 198.063,360.800 198.200 C 360.580 198.336,360.400 198.167,360.400 197.824 C 360.400 197.481,360.175 197.197,359.900 197.194 C 359.567 197.190,359.600 197.058,360.000 196.800 C 360.330 196.587,360.418 196.409,360.195 196.406 C 359.795 196.400,359.310 195.646,358.328 193.500 C 358.051 192.895,357.690 192.400,357.525 192.400 C 357.360 192.400,357.329 192.130,357.455 191.800 C 357.582 191.470,357.508 191.200,357.291 191.200 C 357.074 191.200,356.664 190.615,356.379 189.900 C 356.094 189.185,355.532 188.122,355.130 187.538 C 354.729 186.954,354.400 186.089,354.400 185.615 C 354.400 185.141,354.220 184.864,354.000 185.000 C 353.640 185.222,353.427 184.697,353.553 183.900 C 353.579 183.735,353.420 183.600,353.200 183.600 C 352.980 183.600,352.800 183.268,352.800 182.862 C 352.800 182.456,352.475 181.830,352.078 181.471 C 351.681 181.111,351.107 180.183,350.803 179.409 C 350.499 178.634,350.104 178.000,349.925 178.000 C 349.746 178.000,349.600 177.640,349.600 177.200 C 349.600 176.760,349.420 176.400,349.200 176.400 C 348.980 176.400,348.800 176.040,348.800 175.600 C 348.800 175.160,348.620 174.800,348.400 174.800 C 348.180 174.800,348.000 174.519,348.000 174.176 C 348.000 173.833,347.858 173.640,347.685 173.748 C 347.512 173.855,347.332 173.481,347.285 172.918 C 347.238 172.355,346.858 171.597,346.440 171.235 C 346.022 170.872,345.617 170.131,345.540 169.588 C 345.463 169.045,345.120 168.330,344.778 168.000 C 344.436 167.670,343.906 166.770,343.601 166.000 C 343.295 165.230,342.945 164.510,342.823 164.400 C 342.509 164.118,341.163 161.664,341.183 161.410 C 341.248 160.594,341.117 160.399,340.500 160.394 C 339.902 160.389,339.887 160.331,340.400 160.000 C 340.836 159.718,340.857 159.611,340.476 159.606 C 340.188 159.603,340.067 159.416,340.206 159.190 C 340.345 158.965,340.221 158.830,339.930 158.890 C 339.612 158.956,339.412 158.650,339.429 158.124 C 339.445 157.642,339.265 157.282,339.029 157.324 C 338.793 157.366,338.653 157.085,338.718 156.700 C 338.782 156.315,338.637 156.000,338.394 156.000 C 338.151 156.000,338.057 155.831,338.185 155.625 C 338.312 155.418,338.180 155.103,337.891 154.925 C 337.602 154.746,337.119 153.835,336.819 152.900 C 336.518 151.965,336.121 151.200,335.936 151.200 C 335.751 151.200,335.600 151.007,335.600 150.771 C 335.600 150.536,335.320 150.063,334.977 149.720 C 334.634 149.377,334.449 148.850,334.564 148.548 C 334.681 148.244,334.524 148.000,334.210 148.000 C 333.861 148.000,333.705 147.695,333.800 147.200 C 333.885 146.760,333.784 146.400,333.577 146.400 C 333.370 146.400,333.197 146.175,333.193 145.900 C 333.189 145.625,332.740 144.977,332.195 144.459 C 331.649 143.942,331.310 143.346,331.441 143.134 C 331.571 142.923,331.404 142.446,331.068 142.075 C 330.732 141.704,330.458 141.225,330.459 141.010 C 330.459 140.796,330.222 140.557,329.930 140.480 C 329.568 140.384,329.590 140.485,330.000 140.800 C 330.533 141.210,330.533 141.242,330.000 141.093 C 329.657 140.998,329.451 140.571,329.519 140.098 C 329.585 139.643,329.447 139.152,329.213 139.008 C 328.978 138.863,328.891 138.577,329.017 138.372 C 329.144 138.168,329.057 138.000,328.824 138.000 C 328.591 138.000,328.400 137.717,328.400 137.371 C 328.400 136.754,327.533 135.655,326.914 135.486 C 326.741 135.439,326.645 135.265,326.700 135.100 C 326.755 134.935,326.575 134.797,326.300 134.794 C 325.953 134.790,325.976 134.677,326.374 134.424 C 326.848 134.124,326.858 133.952,326.429 133.435 C 326.143 133.091,325.769 132.896,325.597 133.002 C 325.159 133.272,324.738 132.028,325.075 131.464 C 325.228 131.209,325.049 131.247,324.677 131.549 C 323.909 132.171,323.746 131.614,324.480 130.880 C 324.853 130.507,324.853 130.400,324.480 130.400 C 324.216 130.400,324.000 130.209,324.000 129.976 C 324.000 129.743,324.225 129.667,324.500 129.806 C 324.775 129.945,324.712 129.821,324.360 129.530 C 324.008 129.238,323.678 128.820,323.627 128.600 C 323.483 127.986,323.200 127.809,323.200 128.333 C 323.200 128.590,323.031 128.800,322.825 128.800 C 322.465 128.800,322.401 128.378,322.381 125.873 L 322.372 124.746 321.585 125.673 C 321.034 126.323,320.871 126.391,321.042 125.900 C 321.303 125.150,321.065 125.072,318.900 125.190 L 317.600 125.261 317.542 122.531 C 317.510 121.029,317.465 118.990,317.442 118.000 L 317.400 116.200 293.400 116.090 C 265.784 115.962,268.096 115.755,266.703 118.485 C 258.801 133.960,242.011 148.459,225.600 153.978 C 224.170 154.459,222.640 155.007,222.200 155.196 C 221.760 155.385,220.860 155.651,220.200 155.788 C 219.540 155.924,218.280 156.221,217.400 156.447 C 216.520 156.673,215.248 156.951,214.573 157.064 C 213.419 157.258,213.055 157.849,208.385 167.095 C 203.197 177.366,202.432 178.397,200.000 178.397 C 197.569 178.397,196.802 177.364,191.633 167.130 L 186.689 157.340 184.244 156.835 C 182.900 156.558,181.350 156.188,180.800 156.014 C 180.250 155.839,178.450 155.283,176.800 154.776 C 175.150 154.270,173.629 153.708,173.420 153.528 C 173.211 153.348,172.789 153.200,172.481 153.200 C 171.559 153.200,163.098 149.023,160.429 147.251 C 159.062 146.343,157.867 145.600,157.774 145.600 C 156.598 145.600,145.574 135.629,141.853 131.200 C 139.964 128.952,135.387 122.187,133.599 119.000 C 132.859 117.680,132.061 116.468,131.826 116.306 C 131.070 115.785,82.886 115.937,82.562 116.462 M319.278 122.921 C 319.345 123.318,319.580 123.660,319.800 123.681 C 320.020 123.703,320.410 124.008,320.667 124.360 C 320.924 124.711,321.269 124.864,321.434 124.699 C 321.599 124.535,321.501 124.400,321.218 124.400 C 320.842 124.400,320.818 124.260,321.131 123.884 C 321.456 123.491,321.357 123.352,320.716 123.304 C 320.252 123.269,319.711 123.006,319.514 122.720 C 319.252 122.338,319.189 122.392,319.278 122.921 M40.400 195.997 C 39.614 196.874,39.439 197.720,40.088 197.504 C 40.369 197.410,40.600 197.117,40.600 196.852 C 40.600 196.587,40.844 196.220,41.143 196.035 C 41.441 195.851,41.531 195.616,41.343 195.513 C 41.154 195.411,40.730 195.628,40.400 195.997 M39.039 198.338 C 38.900 198.561,38.982 198.865,39.220 199.012 C 39.835 199.393,40.232 198.872,39.718 198.358 C 39.431 198.071,39.207 198.064,39.039 198.338 M38.133 200.211 C 38.133 200.903,38.867 200.800,39.108 200.075 C 39.195 199.814,39.012 199.600,38.700 199.600 C 38.388 199.600,38.133 199.875,38.133 200.211 M37.102 202.316 C 36.558 203.406,36.572 203.431,37.673 203.417 C 38.293 203.408,38.800 203.182,38.800 202.913 C 38.800 202.623,38.531 202.528,38.136 202.680 C 37.609 202.882,37.518 202.756,37.698 202.067 C 38.009 200.879,37.769 200.980,37.102 202.316 M317.449 227.100 C 318.020 228.365,319.097 230.700,319.843 232.289 C 320.590 233.877,321.200 235.256,321.200 235.353 C 321.200 235.450,321.814 236.850,322.563 238.464 C 323.313 240.079,325.223 244.280,326.807 247.800 C 328.391 251.320,330.027 254.909,330.443 255.775 C 330.860 256.641,331.200 257.492,331.200 257.665 C 331.200 257.837,312.255 258.029,289.100 258.089 L 247.000 258.200 245.450 259.121 C 242.743 260.730,241.672 262.368,240.820 266.200 C 233.425 299.476,194.447 311.209,170.601 287.338 C 166.359 283.091,162.339 276.449,160.833 271.200 C 160.549 270.210,160.155 268.987,159.958 268.481 C 159.761 267.976,159.600 267.208,159.600 266.775 C 159.600 264.976,158.506 262.558,157.000 261.027 C 153.977 257.953,158.046 258.222,111.200 258.000 C 73.969 257.824,69.015 257.729,69.127 257.200 C 69.197 256.870,69.692 255.655,70.227 254.500 C 71.923 250.840,73.098 248.261,74.007 246.200 C 74.492 245.100,75.340 243.210,75.890 242.000 C 76.439 240.790,78.060 237.190,79.491 234.000 C 80.922 230.810,82.451 227.435,82.890 226.500 L 83.688 224.800 200.049 224.800 L 316.411 224.800 317.449 227.100 M391.900 270.560 C 391.735 272.299,391.599 277.159,391.599 281.360 C 391.598 285.562,391.480 291.835,391.336 295.300 L 391.075 301.600 199.997 301.600 L 8.919 301.600 8.662 298.300 C 8.520 296.485,8.382 292.480,8.355 289.400 C 8.328 286.320,8.178 281.370,8.021 278.400 C 7.865 275.430,7.706 296.614,7.669 325.476 C 7.623 360.103,7.736 378.037,8.000 378.200 C 8.220 378.336,8.402 379.022,8.405 379.724 C 8.413 381.468,8.817 382.837,9.245 382.572 C 9.440 382.451,9.600 382.625,9.600 382.958 C 9.600 384.045,10.531 385.635,11.051 385.436 C 11.368 385.314,11.475 385.460,11.335 385.825 C 11.174 386.244,11.301 386.336,11.785 386.150 C 12.241 385.975,12.419 386.072,12.332 386.448 C 12.171 387.151,13.895 388.912,14.424 388.585 C 15.217 388.095,17.206 389.338,17.000 390.196 C 16.894 390.638,16.911 390.775,17.037 390.500 C 17.406 389.697,18.395 389.923,18.788 390.900 C 18.987 391.395,19.161 391.575,19.175 391.300 C 19.219 390.416,21.251 390.708,21.493 391.634 C 21.622 392.128,21.821 392.290,21.980 392.033 C 22.362 391.415,377.638 391.415,378.020 392.033 C 378.179 392.290,378.378 392.128,378.507 391.634 C 378.748 390.714,380.184 390.481,380.567 391.300 C 380.744 391.680,380.854 391.686,381.026 391.322 C 381.150 391.060,381.555 390.949,381.926 391.076 C 382.435 391.251,382.404 391.151,381.800 390.667 C 381.007 390.031,381.008 390.025,381.900 390.013 C 382.395 390.006,382.800 390.185,382.800 390.410 C 382.800 390.638,383.369 390.526,384.080 390.158 C 385.530 389.409,386.661 388.400,386.052 388.400 C 385.829 388.400,385.536 388.580,385.400 388.800 C 385.112 389.267,384.399 389.338,384.403 388.900 C 384.407 388.530,386.353 387.600,387.123 387.600 C 387.459 387.600,387.593 387.358,387.455 387.000 C 387.310 386.621,387.461 386.400,387.866 386.400 C 388.631 386.400,390.074 384.844,389.768 384.348 C 389.650 384.157,389.743 384.000,389.976 384.000 C 390.209 384.000,390.400 383.745,390.400 383.433 C 390.400 383.122,390.598 382.801,390.839 382.720 C 391.081 382.640,391.377 381.680,391.497 380.587 C 391.617 379.494,391.870 378.499,392.059 378.376 C 392.249 378.252,392.357 353.324,392.301 322.776 C 392.246 292.319,392.065 268.822,391.900 270.560 M94.454 316.500 C 95.357 316.775,96.778 317.659,97.612 318.465 C 100.549 321.302,100.451 320.461,100.318 341.643 L 100.200 360.600 99.200 362.382 C 96.533 367.135,96.315 367.165,65.623 366.937 C 29.922 366.672,33.073 369.179,33.029 341.000 C 32.986 313.581,29.714 316.038,66.306 316.016 C 86.408 316.004,93.209 316.121,94.454 316.500 M162.800 318.251 C 166.587 320.882,167.589 325.753,165.100 329.431 C 162.565 333.177,163.732 333.000,141.600 333.000 L 122.200 333.000 120.662 331.938 C 116.341 328.952,115.568 323.462,118.947 319.765 C 121.692 316.763,121.354 316.804,142.400 316.908 L 161.000 317.000 162.800 318.251 M145.007 350.845 C 151.338 353.821,151.613 362.513,145.481 365.859 C 144.092 366.618,128.561 367.162,124.126 366.608 C 115.699 365.555,114.073 354.502,121.800 350.787 C 124.343 349.564,142.378 349.610,145.007 350.845 M384.000 389.600 C 384.000 389.820,383.730 390.000,383.400 390.000 C 383.070 390.000,382.800 389.820,382.800 389.600 C 382.800 389.380,383.070 389.200,383.400 389.200 C 383.730 389.200,384.000 389.380,384.000 389.600 " stroke="none" fill="#67b5fb" fill-rule="evenodd"></path><path id="path3" d="M171.532 50.766 C 167.818 52.622,166.165 56.103,166.958 60.400 C 167.267 62.076,168.005 62.919,177.645 72.616 C 183.340 78.345,188.000 83.139,188.000 83.268 C 188.000 83.397,183.424 88.070,177.831 93.652 C 168.343 103.121,167.621 103.942,167.044 105.928 C 165.463 111.373,169.321 116.500,175.000 116.500 C 178.497 116.500,178.742 116.314,189.597 105.427 C 194.985 100.022,199.667 95.600,200.000 95.600 C 200.333 95.600,205.015 100.022,210.403 105.427 C 221.258 116.314,221.503 116.500,225.000 116.500 C 231.008 116.500,234.609 111.237,232.730 105.200 C 232.414 104.184,229.537 101.021,222.247 93.675 C 216.721 88.106,212.121 83.467,212.025 83.367 C 211.929 83.266,216.537 78.462,222.266 72.692 C 232.321 62.564,232.696 62.131,233.060 60.200 C 234.365 53.285,227.681 47.890,221.442 50.822 C 220.231 51.391,216.709 54.660,210.018 61.422 C 204.698 66.800,200.227 71.200,200.083 71.200 C 199.938 71.200,195.316 66.716,189.810 61.236 C 177.978 49.459,176.192 48.436,171.532 50.766 M56.800 333.552 C 48.770 335.300,47.569 345.665,54.993 349.155 C 57.749 350.450,75.951 350.449,78.491 349.154 C 84.675 345.999,84.789 337.406,78.689 334.162 C 77.275 333.410,59.702 332.921,56.800 333.552 " stroke="none" fill="#fbb46d" fill-rule="evenodd"></path><path id="path4" d="M82.565 116.300 C 82.720 116.575,82.695 116.800,82.510 116.800 C 82.324 116.800,81.639 117.877,80.986 119.193 C 80.334 120.510,79.654 121.590,79.476 121.593 C 79.298 121.597,79.255 121.765,79.380 121.968 C 79.505 122.170,79.336 122.607,79.004 122.939 C 78.672 123.271,78.400 123.730,78.400 123.959 C 78.400 124.188,78.012 125.056,77.537 125.888 C 75.976 128.625,75.605 129.394,75.602 129.900 C 75.601 130.175,75.420 130.400,75.200 130.400 C 74.980 130.400,74.800 130.760,74.800 131.200 C 74.800 131.640,74.620 132.000,74.400 132.000 C 74.180 132.000,74.000 132.270,74.000 132.600 C 74.000 132.930,73.820 133.200,73.600 133.200 C 73.380 133.200,73.200 133.434,73.200 133.720 C 73.200 134.456,72.259 136.393,71.900 136.397 C 71.735 136.399,71.600 136.760,71.600 137.200 C 71.600 137.640,71.420 138.000,71.200 138.000 C 70.980 138.000,70.800 138.360,70.800 138.800 C 70.800 139.240,70.665 139.601,70.500 139.603 C 70.335 139.605,70.001 140.010,69.759 140.503 C 69.516 140.996,68.751 142.453,68.059 143.741 C 67.366 145.028,66.800 146.344,66.800 146.664 C 66.800 146.985,66.650 147.155,66.468 147.042 C 66.285 146.929,65.891 147.458,65.593 148.218 C 65.295 148.978,64.894 149.600,64.702 149.600 C 64.510 149.600,64.455 149.765,64.580 149.968 C 64.705 150.170,64.536 150.607,64.204 150.939 C 63.872 151.271,63.600 151.826,63.600 152.171 C 63.600 152.517,63.420 152.800,63.200 152.800 C 62.980 152.800,62.800 153.145,62.800 153.567 C 62.800 153.988,62.665 154.393,62.500 154.467 C 61.975 154.700,58.799 161.065,59.072 161.338 C 59.216 161.482,59.157 161.600,58.941 161.600 C 58.726 161.600,58.302 162.230,58.000 163.000 C 57.698 163.770,57.304 164.400,57.125 164.400 C 56.946 164.400,56.800 164.760,56.800 165.200 C 56.800 165.640,56.620 166.000,56.400 166.000 C 56.180 166.000,56.000 166.345,56.000 166.767 C 56.000 167.188,55.865 167.593,55.700 167.667 C 55.238 167.872,53.601 171.192,53.594 171.938 C 53.589 172.512,53.536 172.520,53.200 172.000 C 52.886 171.515,52.811 171.572,52.806 172.300 C 52.803 172.795,52.620 173.200,52.400 173.200 C 52.180 173.200,52.000 173.560,52.000 174.000 C 52.000 174.440,51.820 174.800,51.600 174.800 C 51.380 174.800,51.200 175.094,51.200 175.453 C 51.200 176.156,49.639 178.914,49.117 179.133 C 48.943 179.207,48.800 179.613,48.800 180.037 C 48.800 180.460,48.260 181.552,47.600 182.463 C 46.940 183.375,46.400 184.453,46.400 184.860 C 46.400 185.267,46.220 185.600,46.000 185.600 C 45.780 185.600,45.600 185.870,45.600 186.200 C 45.600 186.530,45.399 186.800,45.153 186.800 C 44.904 186.800,44.799 187.153,44.916 187.600 C 45.031 188.040,45.007 188.406,44.863 188.413 C 44.718 188.419,44.254 188.899,43.832 189.478 C 43.409 190.058,43.272 190.403,43.527 190.245 C 43.830 190.058,43.908 190.173,43.753 190.579 C 43.622 190.921,43.398 191.200,43.257 191.200 C 42.728 191.200,41.113 194.795,41.356 195.431 C 41.533 195.891,41.439 196.024,41.044 195.872 C 40.677 195.731,40.515 195.891,40.583 196.328 C 40.640 196.697,40.256 197.437,39.728 197.970 C 39.195 198.509,38.869 199.203,38.995 199.531 C 39.224 200.128,37.867 201.734,37.470 201.336 C 37.351 201.218,37.356 201.509,37.480 201.983 C 37.615 202.502,37.923 202.762,38.253 202.635 C 38.554 202.520,38.800 202.659,38.800 202.946 C 38.800 203.480,37.721 203.569,36.960 203.099 C 36.725 202.954,36.533 203.097,36.533 203.418 C 36.533 203.738,36.685 204.000,36.870 204.000 C 37.055 204.000,36.989 204.348,36.723 204.774 C 36.457 205.200,36.091 205.457,35.910 205.344 C 35.729 205.232,35.630 205.379,35.690 205.670 C 35.751 205.962,35.620 206.174,35.400 206.142 C 34.761 206.048,33.667 208.672,34.092 209.277 C 34.381 209.687,34.426 209.672,34.300 209.209 C 34.212 208.883,34.283 208.433,34.458 208.209 C 35.782 206.513,36.729 205.657,37.004 205.907 C 37.182 206.068,37.215 206.002,37.077 205.759 C 36.079 204.007,36.531 203.973,60.059 203.993 L 82.309 204.013 82.547 193.506 C 82.795 182.542,83.160 149.698,83.264 128.882 C 83.311 119.382,83.212 116.660,82.803 116.282 C 82.396 115.904,82.344 115.908,82.565 116.300 M131.826 116.306 C 132.061 116.468,132.859 117.680,133.599 119.000 C 135.387 122.187,139.964 128.952,141.853 131.200 C 145.574 135.629,156.598 145.600,157.774 145.600 C 157.867 145.600,159.062 146.343,160.429 147.251 C 163.098 149.023,171.559 153.200,172.481 153.200 C 172.789 153.200,173.211 153.348,173.420 153.528 C 173.629 153.708,175.150 154.270,176.800 154.776 C 178.450 155.283,180.250 155.839,180.800 156.014 C 181.350 156.188,182.900 156.558,184.244 156.835 L 186.689 157.340 191.633 167.130 C 196.802 177.364,197.569 178.397,200.000 178.397 C 202.432 178.397,203.197 177.366,208.385 167.095 C 213.055 157.849,213.419 157.258,214.573 157.064 C 215.248 156.951,216.520 156.673,217.400 156.447 C 218.280 156.221,219.540 155.924,220.200 155.788 C 220.860 155.651,221.760 155.385,222.200 155.196 C 222.640 155.007,224.170 154.459,225.600 153.978 C 241.977 148.471,258.474 134.256,266.657 118.600 C 267.232 117.500,267.905 116.468,268.151 116.306 C 268.467 116.099,268.470 116.010,268.162 116.006 C 267.528 115.997,266.686 117.079,265.236 119.762 C 260.742 128.077,252.725 137.126,243.992 143.740 C 238.028 148.257,227.967 153.039,220.000 155.145 C 218.130 155.639,215.700 156.305,214.600 156.625 L 212.600 157.205 207.800 166.903 C 203.408 175.775,202.872 176.668,201.500 177.400 L 200.000 178.200 198.500 177.400 C 197.128 176.668,196.589 175.772,192.200 166.918 L 187.400 157.236 185.629 156.618 C 184.655 156.278,183.580 156.000,183.240 156.000 C 181.395 156.000,172.735 152.917,167.212 150.294 C 154.055 144.045,141.501 132.228,134.753 119.741 C 133.314 117.078,132.470 115.997,131.838 116.006 C 131.531 116.010,131.528 116.100,131.826 116.306 M317.552 117.433 C 317.477 118.654,317.474 119.618,317.539 122.531 L 317.600 125.261 318.900 125.190 C 321.047 125.073,321.304 125.153,321.034 125.857 C 320.823 126.406,320.882 126.430,321.391 126.008 C 322.160 125.369,322.174 124.800,321.420 124.800 C 321.101 124.800,320.680 124.514,320.484 124.164 C 320.288 123.814,319.964 123.554,319.764 123.585 C 319.564 123.617,319.345 123.318,319.278 122.921 C 319.205 122.486,319.285 122.370,319.478 122.629 C 319.655 122.865,320.126 123.179,320.525 123.326 C 320.924 123.474,321.139 123.776,321.002 123.997 C 320.865 124.219,320.943 124.400,321.176 124.400 C 321.841 124.400,321.675 123.792,320.791 122.991 C 320.172 122.432,320.101 122.183,320.491 121.936 C 320.890 121.682,320.892 121.611,320.500 121.606 C 320.225 121.603,320.000 121.330,320.000 121.000 C 320.000 120.670,319.859 120.400,319.688 120.400 C 319.420 120.400,318.381 118.335,318.245 117.533 C 318.126 116.833,317.594 116.756,317.552 117.433 M322.211 126.700 C 322.374 127.085,322.494 127.715,322.478 128.100 C 322.463 128.485,322.619 128.800,322.825 128.800 C 323.031 128.800,323.200 128.609,323.200 128.376 C 323.200 128.143,323.425 128.084,323.700 128.245 C 323.975 128.406,323.885 128.177,323.500 127.737 C 323.115 127.297,322.800 126.726,322.800 126.469 C 322.800 126.211,322.601 126.000,322.357 126.000 C 322.089 126.000,322.031 126.277,322.211 126.700 M324.000 129.914 C 324.000 130.181,324.202 130.400,324.449 130.400 C 324.756 130.400,324.738 130.593,324.392 131.010 C 324.114 131.345,323.976 131.709,324.086 131.819 C 324.196 131.929,324.521 131.736,324.809 131.390 C 325.244 130.865,325.220 130.649,324.666 130.094 C 324.242 129.671,324.000 129.605,324.000 129.914 M324.957 132.233 C 325.091 132.581,325.200 132.951,325.200 133.056 C 325.200 133.161,325.372 133.141,325.583 133.011 C 326.047 132.724,325.674 131.600,325.114 131.600 C 324.894 131.600,324.824 131.885,324.957 132.233 M326.334 134.751 C 326.628 134.937,326.853 135.204,326.834 135.345 C 326.815 135.485,326.890 135.600,327.000 135.600 C 327.110 135.600,327.312 135.600,327.449 135.600 C 327.586 135.600,327.474 135.330,327.200 135.000 C 326.926 134.670,326.499 134.403,326.251 134.406 C 325.980 134.410,326.013 134.547,326.334 134.751 M329.458 140.194 C 329.318 140.559,329.571 140.953,330.115 141.216 C 330.868 141.580,330.905 141.566,330.365 141.122 C 330.016 140.835,329.806 140.375,329.898 140.100 C 330.137 139.390,329.733 139.477,329.458 140.194 M339.053 157.985 C 339.382 158.645,339.834 159.297,340.058 159.436 C 340.283 159.575,340.182 159.140,339.836 158.469 C 339.489 157.799,339.037 157.146,338.830 157.019 C 338.624 156.891,338.724 157.326,339.053 157.985 M7.686 258.751 C 7.460 259.342,8.139 285.652,8.779 301.100 C 8.796 301.499,47.318 301.600,200.000 301.600 L 391.200 301.600 391.230 299.500 C 391.303 294.465,392.043 268.522,392.252 263.674 L 392.482 258.349 319.747 258.634 C 248.485 258.913,246.984 258.935,245.614 259.704 C 243.965 260.630,242.958 261.720,242.211 263.387 C 241.706 264.512,241.543 265.194,240.937 268.704 C 240.813 269.421,240.551 270.106,240.356 270.227 C 240.160 270.348,240.000 270.876,240.000 271.400 C 240.000 271.924,239.820 272.464,239.600 272.600 C 239.380 272.736,239.200 273.172,239.200 273.568 C 239.200 274.474,236.602 279.555,234.554 282.653 C 232.863 285.212,227.433 290.870,225.200 292.402 C 224.430 292.930,223.710 293.460,223.600 293.581 C 223.247 293.968,221.023 295.242,220.300 295.471 C 219.915 295.593,219.600 295.852,219.600 296.047 C 219.600 296.241,219.240 296.400,218.800 296.400 C 218.360 296.400,218.000 296.580,218.000 296.800 C 218.000 297.020,217.728 297.200,217.395 297.200 C 217.062 297.200,216.432 297.380,215.995 297.600 C 215.558 297.820,214.842 298.180,214.405 298.400 C 213.968 298.620,213.259 298.800,212.829 298.800 C 212.399 298.800,211.936 298.980,211.800 299.200 C 211.664 299.420,210.944 299.600,210.200 299.600 C 209.456 299.600,208.736 299.780,208.600 300.000 C 208.464 300.220,207.024 300.400,205.400 300.400 C 203.776 300.400,202.336 300.580,202.200 300.800 C 202.064 301.020,201.254 301.200,200.400 301.200 C 199.546 301.200,198.736 301.020,198.600 300.800 C 198.464 300.580,196.934 300.400,195.200 300.400 C 193.466 300.400,191.936 300.220,191.800 300.000 C 191.664 299.780,190.944 299.600,190.200 299.600 C 189.456 299.600,188.736 299.420,188.600 299.200 C 188.464 298.980,187.924 298.800,187.400 298.800 C 186.876 298.800,186.336 298.620,186.200 298.400 C 186.064 298.180,185.513 298.000,184.976 298.000 C 184.439 298.000,184.000 297.820,184.000 297.600 C 184.000 297.380,183.640 297.200,183.200 297.200 C 182.760 297.200,182.400 297.020,182.400 296.800 C 182.400 296.580,182.040 296.400,181.600 296.400 C 181.160 296.400,180.800 296.254,180.800 296.075 C 180.800 295.896,180.170 295.502,179.400 295.200 C 178.630 294.898,178.000 294.504,178.000 294.325 C 178.000 294.146,177.730 294.000,177.400 294.000 C 177.070 294.000,176.800 293.820,176.800 293.600 C 176.800 293.380,176.596 293.200,176.347 293.200 C 176.098 293.200,175.603 292.875,175.247 292.478 C 174.891 292.080,174.150 291.449,173.600 291.075 C 170.176 288.744,165.259 282.597,162.819 277.598 C 162.122 276.169,161.383 274.687,161.176 274.305 C 160.969 273.923,160.800 273.259,160.800 272.829 C 160.800 272.399,160.641 271.949,160.446 271.829 C 160.251 271.708,159.990 271.113,159.864 270.505 C 159.739 269.897,159.440 268.500,159.200 267.400 C 158.960 266.300,158.663 264.915,158.540 264.323 C 158.417 263.730,157.700 262.526,156.947 261.647 C 154.331 258.590,157.465 258.806,114.839 258.744 C 93.807 258.713,61.142 258.578,42.249 258.444 C 13.275 258.238,7.865 258.286,7.686 258.751 M38.215 316.823 C 32.965 319.441,32.995 319.304,33.029 341.000 C 33.063 363.028,33.342 364.302,38.525 366.151 C 40.511 366.859,89.515 367.408,93.023 366.761 C 96.427 366.134,100.038 362.720,99.963 360.200 C 99.947 359.668,99.776 359.850,99.452 360.745 C 98.751 362.682,96.572 365.117,94.923 365.806 C 92.741 366.718,41.075 366.693,38.887 365.779 C 33.715 363.618,33.619 363.176,33.609 341.484 C 33.596 314.319,29.939 317.000,67.000 317.000 L 94.600 317.000 96.000 317.985 C 99.838 320.687,99.769 320.284,100.008 341.200 L 100.216 359.400 100.308 340.912 C 100.444 313.589,103.739 316.008,66.400 316.022 C 40.717 316.032,39.745 316.059,38.215 316.823 " stroke="none" fill="#88d4fc" fill-rule="evenodd"></path></g></svg>