<svg width="190" height="188" viewBox="0 0 190 188" fill="none" xmlns="http://www.w3.org/2000/svg">
<g clip-path="url(#clip0_388_3499)">
<path d="M125.166 49.8083H94.1443C93.4652 49.8104 92.7946 49.6575 92.1834 49.3615C91.5723 49.0655 91.0368 48.634 90.6176 48.0999C90.1908 47.5608 89.8927 46.9315 89.746 46.2599C89.5992 45.5883 89.6078 44.892 89.7709 44.2242C92.6299 32.2547 92.6299 19.7807 89.7707 7.81126C89.6077 7.14343 89.5992 6.44723 89.746 5.77565C89.8927 5.10406 90.1908 4.47477 90.6175 3.93567C91.0367 3.40157 91.5722 2.97009 92.1834 2.67405C92.7945 2.37802 93.4652 2.22523 94.1443 2.22732H125.166C126.237 2.23039 127.272 2.61336 128.087 3.30802C128.902 4.00267 129.443 4.9639 129.616 6.02051C131.657 19.274 131.657 32.7617 129.616 46.0151C129.443 47.0717 128.902 48.0329 128.087 48.7276C127.272 49.4222 126.237 49.8052 125.166 49.8083Z" fill="#E6E6E6"/>
<path d="M94.1443 4.56031C93.8182 4.55922 93.4961 4.63249 93.2025 4.77455C92.909 4.91661 92.6517 5.12372 92.4503 5.38013C92.2429 5.64283 92.0982 5.94936 92.0272 6.27638C91.9561 6.6034 91.9607 6.94231 92.0404 7.26733C94.985 19.5944 94.9851 32.4412 92.0406 44.7683C91.9608 45.0932 91.9562 45.4321 92.0272 45.759C92.0982 46.086 92.2429 46.3925 92.4502 46.6551C92.6516 46.9116 92.909 47.1189 93.2025 47.261C93.4961 47.4031 93.8182 47.4764 94.1443 47.4753H125.165C125.68 47.4755 126.178 47.2932 126.57 46.9609C126.962 46.6285 127.224 46.1678 127.309 45.6606C129.314 32.6421 129.314 19.3935 127.309 6.37498C127.224 5.86784 126.962 5.40708 126.57 5.07476C126.178 4.74244 125.68 4.56014 125.165 4.56031L94.1443 4.56031Z" fill="white"/>
<path d="M118.396 15.7784H102.117C101.498 15.7777 100.905 15.5317 100.468 15.0944C100.03 14.657 99.7839 14.064 99.7832 13.4455V12.5338C99.7839 11.9153 100.03 11.3223 100.468 10.885C100.905 10.4476 101.498 10.2016 102.117 10.2009H118.396C119.015 10.2016 119.608 10.4476 120.046 10.885C120.483 11.3223 120.729 11.9153 120.73 12.5338V13.4455C120.729 14.064 120.483 14.657 120.046 15.0944C119.608 15.5317 119.015 15.7777 118.396 15.7784Z" fill="#E6E6E6"/>
<path d="M118.396 27.2977H102.117C101.498 27.297 100.905 27.051 100.468 26.6136C100.03 26.1763 99.7839 25.5833 99.7832 24.9648V24.0531C99.7839 23.4346 100.03 22.8416 100.468 22.4042C100.905 21.9669 101.498 21.7209 102.117 21.7202H118.396C119.015 21.7209 119.608 21.9669 120.046 22.4042C120.483 22.8416 120.729 23.4346 120.73 24.0531V24.9648C120.729 25.5833 120.483 26.1763 120.046 26.6136C119.608 27.051 119.015 27.297 118.396 27.2977Z" fill="#E6E6E6"/>
<path d="M118.396 38.8172H102.117C101.498 38.8165 100.905 38.5705 100.468 38.1332C100.03 37.6958 99.7839 37.1028 99.7832 36.4843V35.5726C99.7839 34.9541 100.03 34.3611 100.468 33.9238C100.905 33.4864 101.498 33.2404 102.117 33.2397H118.396C119.015 33.2404 119.608 33.4864 120.046 33.9238C120.483 34.3611 120.729 34.9541 120.73 35.5726V36.4843C120.729 37.1028 120.483 37.6958 120.046 38.1332C119.608 38.5705 119.015 38.8165 118.396 38.8172Z" fill="#E6E6E6"/>
<path d="M183.519 79.3593H152.498C151.818 79.3614 151.148 79.2086 150.537 78.9125C149.926 78.6165 149.39 78.185 148.971 77.651C148.544 77.1119 148.246 76.4826 148.099 75.8109C147.952 75.1393 147.961 74.443 148.124 73.7752C150.983 61.8057 150.983 49.3317 148.124 37.3623C147.961 36.6945 147.953 35.9983 148.099 35.3267C148.246 34.6551 148.544 34.0258 148.971 33.4867C149.39 32.9526 149.925 32.5211 150.537 32.2251C151.148 31.929 151.818 31.7763 152.498 31.7783H183.519C184.59 31.7814 185.625 32.1644 186.44 32.859C187.255 33.5537 187.797 34.5149 187.969 35.5715C190.01 48.825 190.01 62.3127 187.969 75.5661C187.797 76.6227 187.255 77.584 186.44 78.2786C185.625 78.9733 184.59 79.3562 183.519 79.3593Z" fill="#E6E6E6"/>
<path d="M152.498 34.1113C152.171 34.1102 151.849 34.1835 151.556 34.3256C151.262 34.4676 151.005 34.6747 150.804 34.9312C150.596 35.1939 150.451 35.5004 150.38 35.8274C150.309 36.1544 150.314 36.4933 150.394 36.8184C153.338 49.1454 153.338 61.9922 150.394 74.3193C150.314 74.6442 150.309 74.9831 150.38 75.3101C150.451 75.637 150.596 75.9435 150.803 76.2061C151.005 76.4626 151.262 76.67 151.556 76.8121C151.849 76.9542 152.171 77.0274 152.498 77.0263H183.519C184.033 77.0265 184.531 76.8442 184.923 76.5119C185.316 76.1796 185.577 75.7188 185.662 75.2117C187.667 62.1931 187.667 48.9445 185.662 35.926C185.577 35.4189 185.316 34.9581 184.923 34.6258C184.531 34.2935 184.033 34.1112 183.519 34.1113L152.498 34.1113Z" fill="white"/>
<path d="M121.664 112.993H90.6431C89.9346 112.995 89.2349 112.836 88.5973 112.527C87.9597 112.218 87.401 111.768 86.9637 111.211C86.5186 110.649 86.2077 109.992 86.0547 109.292C85.9017 108.592 85.9105 107.866 86.0806 107.169C88.9324 95.2297 88.9324 82.7868 86.0804 70.8472C85.9104 70.1508 85.9016 69.4248 86.0547 68.7245C86.2077 68.0242 86.5186 67.368 86.9636 66.8059C87.4009 66.2487 87.9596 65.7985 88.5972 65.4896C89.2349 65.1808 89.9346 65.0213 90.6431 65.0235H121.664C122.782 65.0268 123.862 65.4265 124.712 66.1513C125.562 66.8761 126.127 67.8791 126.307 68.9815C128.351 82.2545 128.351 95.7622 126.307 109.035C126.127 110.138 125.562 111.141 124.712 111.865C123.862 112.59 122.782 112.99 121.664 112.993Z" fill="#F2F2F2"/>
<path d="M176.749 51.1619H160.471C159.852 51.1613 159.259 50.9153 158.821 50.4779C158.384 50.0405 158.137 49.4476 158.137 48.829V47.9174C158.137 47.2989 158.384 46.7059 158.821 46.2685C159.259 45.8312 159.852 45.5851 160.471 45.5845H176.749C177.368 45.5851 177.961 45.8312 178.399 46.2685C178.837 46.7059 179.083 47.2989 179.083 47.9174V48.8291C179.083 49.4476 178.837 50.0405 178.399 50.4779C177.961 50.9153 177.368 51.1613 176.749 51.1619Z" fill="#E6E6E6"/>
<path d="M176.749 62.6815H160.471C159.852 62.6808 159.259 62.4348 158.821 61.9974C158.384 61.5601 158.137 60.9671 158.137 60.3486V59.4369C158.137 58.8184 158.384 58.2254 158.821 57.788C159.259 57.3507 159.852 57.1047 160.471 57.104H176.749C177.368 57.1047 177.961 57.3507 178.399 57.788C178.837 58.2254 179.083 58.8184 179.083 59.4369V60.3486C179.083 60.9671 178.837 61.5601 178.399 61.9974C177.961 62.4348 177.368 62.6808 176.749 62.6815Z" fill="#E6E6E6"/>
<path d="M106.24 97.791C111.182 97.791 115.188 93.7871 115.188 88.8479C115.188 83.9088 111.182 79.9048 106.24 79.9048C101.299 79.9048 97.293 83.9088 97.293 88.8479C97.293 93.7871 101.299 97.791 106.24 97.791Z" fill="white"/>
<path d="M110.52 87.6814H107.408V84.5708C107.408 84.2614 107.285 83.9647 107.066 83.746C106.847 83.5272 106.55 83.4043 106.24 83.4043C105.931 83.4043 105.634 83.5272 105.415 83.746C105.196 83.9647 105.073 84.2614 105.073 84.5708V87.6814H101.961C101.652 87.6814 101.355 87.8043 101.136 88.0231C100.917 88.2419 100.794 88.5386 100.794 88.8479C100.794 89.1573 100.917 89.454 101.136 89.6728C101.355 89.8915 101.652 90.0144 101.961 90.0144H105.073V93.1251C105.073 93.4345 105.196 93.7312 105.415 93.9499C105.634 94.1687 105.931 94.2916 106.24 94.2916C106.55 94.2916 106.847 94.1687 107.066 93.9499C107.285 93.7312 107.408 93.4345 107.408 93.1251V90.0144H110.52C110.829 90.0144 111.126 89.8915 111.345 89.6728C111.564 89.454 111.687 89.1573 111.687 88.8479C111.687 88.5386 111.564 88.2419 111.345 88.0231C111.126 87.8043 110.829 87.6814 110.52 87.6814Z" fill="#E6E6E6"/>
<path d="M117.522 6.61013H101.183C100.719 6.60961 100.274 6.4251 99.9459 6.09707C99.6178 5.76904 99.4331 5.32429 99.4326 4.86039V1.74974C99.4331 1.28584 99.6178 0.841091 99.9459 0.513065C100.274 0.185038 100.719 0.000522807 101.183 0H117.522C117.986 0.000522807 118.431 0.185038 118.759 0.513065C119.088 0.841091 119.272 1.28584 119.273 1.74974V4.86039C119.272 5.32429 119.088 5.76904 118.759 6.09707C118.431 6.4251 117.986 6.60961 117.522 6.61013Z" fill="#CCCCCC"/>
<path d="M176.653 36.5501H160.315C159.85 36.5496 159.405 36.365 159.077 36.037C158.749 35.709 158.564 35.2642 158.564 34.8003V31.6897C158.564 31.2258 158.749 30.781 159.077 30.453C159.405 30.125 159.85 29.9405 160.315 29.9399H176.653C177.118 29.9405 177.563 30.125 177.891 30.453C178.219 30.781 178.404 31.2258 178.404 31.6897V34.8003C178.404 35.2642 178.219 35.709 177.891 36.037C177.563 36.365 177.118 36.5496 176.653 36.5501Z" fill="#CCCCCC"/>
<path d="M34.9659 183.163H39.7353L41.2264 164.776H34.9651L34.9659 183.163Z" fill="#FFB8B8"/>
<path d="M33.7495 181.607L43.142 181.607H43.1424C43.9284 181.607 44.7068 181.761 45.433 182.062C46.1592 182.363 46.8191 182.803 47.3749 183.359C47.9307 183.914 48.3716 184.574 48.6724 185.3C48.9732 186.026 49.1281 186.804 49.128 187.589V187.784L33.7498 187.784L33.7495 181.607Z" fill="#2F2E41"/>
<path d="M9.29033 183.163H14.0597L16.3289 164.776H9.28955L9.29033 183.163Z" fill="#FFB8B8"/>
<path d="M8.07397 181.607L17.4664 181.607H17.4668C18.2529 181.607 19.0312 181.761 19.7575 182.062C20.4837 182.363 21.1435 182.803 21.6994 183.359C22.2552 183.914 22.6961 184.574 22.9969 185.3C23.2977 186.026 23.4525 186.804 23.4525 187.589V187.784L8.07427 187.784L8.07397 181.607Z" fill="#2F2E41"/>
<path d="M10.1367 177.355C9.65015 177.355 9.18146 177.172 8.82371 176.842C8.63167 176.667 8.477 176.455 8.36899 176.219C8.26098 175.982 8.20186 175.727 8.19516 175.467L6.28247 106.949L33.4405 113.735L41.8199 138.861C42.9005 142.093 43.3682 145.498 43.1991 148.902L42.1587 173.257C42.135 173.756 41.9198 174.227 41.558 174.571C41.1962 174.916 40.7155 175.108 40.2158 175.108H35.6607C35.1905 175.106 34.7368 174.934 34.3828 174.625C34.0287 174.316 33.7981 173.89 33.7332 173.424L30.4775 146.54C30.193 144.442 29.459 142.431 28.3255 140.643L21.9185 130.504C21.8757 130.436 21.813 130.384 21.7389 130.353C21.6649 130.322 21.5832 130.315 21.5049 130.332C21.4267 130.35 21.3558 130.391 21.3018 130.45C21.2479 130.51 21.2136 130.584 21.2036 130.664L16.1757 175.414C16.1217 175.867 15.9093 176.288 15.5757 176.6C15.2422 176.913 14.809 177.098 14.3523 177.123L10.2474 177.351C10.2105 177.353 10.1736 177.355 10.1367 177.355Z" fill="#2F2E41"/>
<path d="M28.921 62.589C34.198 62.589 38.4758 58.3132 38.4758 53.0389C38.4758 47.7645 34.198 43.4888 28.921 43.4888C23.644 43.4888 19.3662 47.7645 19.3662 53.0389C19.3662 58.3132 23.644 62.589 28.921 62.589Z" fill="#FFB8B8"/>
<path d="M33.3102 116.522C33.1458 116.522 32.9821 116.501 32.8228 116.46L5.87719 109.555C5.39544 109.431 4.97926 109.128 4.71422 108.708C4.44919 108.287 4.35543 107.781 4.45225 107.293L10.6405 73.9741C11.026 72.0481 11.8735 70.2445 13.1101 68.7179C14.3467 67.1914 15.9355 65.9877 17.74 65.2101C19.4984 64.4322 21.4212 64.099 23.3389 64.2397C25.2566 64.3804 27.1102 64.9908 28.736 66.017C29.1132 66.2522 29.4932 66.5087 29.8652 66.7794C31.3625 67.8834 32.5835 69.3191 33.4325 70.9739C34.2815 72.6287 34.7354 74.4576 34.7586 76.3172L35.2507 114.55C35.254 114.808 35.2063 115.063 35.1103 115.301C35.0144 115.54 34.8721 115.757 34.6917 115.941C34.5113 116.124 34.2963 116.27 34.0592 116.37C33.8221 116.469 33.5675 116.521 33.3102 116.522Z" fill="#6C63FF"/>
<path d="M8.64973 116.914C8.3283 116.441 8.11449 115.904 8.02337 115.339C7.93224 114.775 7.96602 114.198 8.12232 113.648C8.27861 113.098 8.55363 112.589 8.92799 112.157C9.30235 111.725 9.76696 111.38 10.2891 111.147L9.09058 97.3035L15.4418 100.744L15.6062 113.362C15.9401 114.265 15.9311 115.259 15.5809 116.155C15.2307 117.052 14.5637 117.789 13.7063 118.226C12.8488 118.664 11.8604 118.772 10.9285 118.53C9.99655 118.289 9.18574 117.713 8.64973 116.914Z" fill="#FFB8B8"/>
<path d="M10.9188 109.316C10.7396 109.316 10.5611 109.293 10.3875 109.249C10.0141 109.153 9.67336 108.959 9.40136 108.686C9.12936 108.413 8.93621 108.072 8.84233 107.699L5.72113 95.3011C4.63036 90.9712 5.15034 86.3927 7.18434 82.4173L13.7233 69.6318C14.1367 68.101 15.1354 66.7939 16.5042 65.9924C17.8729 65.191 19.502 64.9593 21.0401 65.3474C21.8067 65.5409 22.5273 65.8846 23.16 66.3585C23.7927 66.8325 24.325 67.4272 24.726 68.1084C25.1353 68.7992 25.403 69.5646 25.5134 70.3598C25.6239 71.1551 25.575 71.9644 25.3695 72.7405L16.0612 93.5453L16.1717 106.002C16.1746 106.441 16.0424 106.871 15.793 107.233C15.5436 107.595 15.1891 107.871 14.7773 108.025L11.6623 109.182C11.4244 109.27 11.1726 109.316 10.9188 109.316Z" fill="#6C63FF"/>
<path d="M55.4756 111.822C54.9074 111.757 54.3604 111.568 53.873 111.269C53.3856 110.97 52.9698 110.568 52.6548 110.091C52.3398 109.614 52.1333 109.073 52.0498 108.508C51.9663 107.942 52.0079 107.365 52.1717 106.818L40.8926 98.6954L47.6447 96.1284L57.3203 104.235C58.2226 104.571 58.9703 105.226 59.4217 106.076C59.8731 106.926 59.9968 107.912 59.7694 108.847C59.542 109.783 58.9793 110.602 58.188 111.15C57.3966 111.698 56.4315 111.937 55.4756 111.822Z" fill="#FFB8B8"/>
<path d="M49.5711 105.891C49.2385 105.891 48.9106 105.813 48.613 105.665L37.1761 99.9421C33.1814 97.9437 30.0487 94.5632 28.3606 90.4292L22.931 77.1349C22.0399 75.8231 21.7003 74.2138 21.9854 72.654C22.2705 71.0942 23.1575 69.7089 24.455 68.7967C25.1034 68.3411 25.8359 68.019 26.61 67.8492C27.3841 67.6794 28.1843 67.6653 28.9639 67.8077C29.7527 67.9495 30.5055 68.2463 31.1787 68.681C31.8518 69.1156 32.432 69.6795 32.8856 70.3399L42.5898 90.9633L52.1075 99.0054C52.4427 99.2898 52.6823 99.6703 52.7941 100.095C52.9059 100.52 52.8844 100.969 52.7325 101.382L51.5773 104.496C51.4264 104.904 51.1539 105.256 50.7965 105.505C50.4372 105.756 50.0095 105.891 49.5711 105.891Z" fill="#6C63FF"/>
<path d="M26.9146 62.7354C27.4223 62.9574 28.4619 58.9142 27.9962 58.1055C27.3036 56.9029 27.3446 56.9115 26.8848 56.1159C26.4251 55.3202 26.3222 54.2312 26.9176 53.5311C27.5129 52.831 28.8907 52.9239 29.1624 53.8016C28.9876 52.1344 30.6375 50.7942 32.2718 50.4176C33.9062 50.041 35.63 50.2748 37.2734 49.9397C39.1805 49.5507 41.1648 47.9528 40.4039 45.8567C40.2733 45.5077 40.0778 45.1865 39.8277 44.9102C38.9486 43.9222 37.7188 43.5003 36.5164 43.0924C34.0149 42.2438 31.4451 41.3845 28.8051 41.4782C26.63 41.5919 24.5351 42.3369 22.777 43.622C21.0188 44.9072 19.6736 46.6767 18.9059 48.7141C18.724 49.2238 18.5831 49.7472 18.4845 50.2793C17.5783 55.1491 20.4077 59.9526 25.003 61.807L26.9146 62.7354Z" fill="#2F2E41"/>
<path opacity="0.2" d="M15.6331 106.284L15.8497 93.4805L22.6355 79.8438L17.1891 93.8417L15.6331 106.284Z" fill="black"/>
<path d="M77.1674 138.417L48.5205 126.521C47.8925 126.262 47.3319 125.864 46.8811 125.356C46.4304 124.848 46.1015 124.244 45.9194 123.59C45.7322 122.929 45.6985 122.233 45.8209 121.557C45.9432 120.88 46.2183 120.241 46.6253 119.687C53.8603 109.73 58.6487 98.2103 60.603 86.0605C60.7089 85.3813 60.9683 84.7352 61.3616 84.1712C61.7549 83.6073 62.2718 83.1405 62.8728 82.8063C63.4649 82.4738 64.1251 82.2807 64.8031 82.2417C65.4811 82.2027 66.1591 82.3189 66.7855 82.5812L95.4324 94.4777C96.4203 94.8913 97.2293 95.642 97.7152 96.596C98.2011 97.55 98.3324 98.6454 98.0858 99.6872C94.8835 112.709 89.7059 125.165 82.7329 136.621C82.1684 137.53 81.2991 138.21 80.2799 138.539C79.2606 138.868 78.1577 138.825 77.1674 138.417Z" fill="#E6E6E6"/>
<path d="M65.89 84.7357C65.5892 84.6096 65.2636 84.5537 64.938 84.5723C64.6124 84.591 64.2953 84.6836 64.0109 84.8431C63.7185 85.0062 63.4672 85.2337 63.2761 85.5085C63.085 85.7832 62.959 86.098 62.9079 86.4287C60.8951 98.9415 55.9637 110.805 48.5125 121.06C48.3141 121.329 48.1798 121.64 48.1198 121.969C48.0599 122.298 48.0758 122.637 48.1665 122.959C48.254 123.273 48.4121 123.563 48.6286 123.807C48.8452 124.051 49.1145 124.242 49.4161 124.366L78.063 136.263C78.538 136.46 79.0676 136.483 79.5576 136.326C80.0475 136.17 80.4661 135.845 80.7387 135.409C87.5879 124.156 92.6737 111.921 95.8193 99.1298C95.9361 98.6291 95.8713 98.1033 95.6365 97.6459C95.4016 97.1885 95.0119 96.8293 94.5369 96.6322L65.89 84.7357Z" fill="white"/>
<path d="M81.1431 111.218L66.1103 104.975C65.5391 104.737 65.0857 104.283 64.8495 103.711C64.6133 103.139 64.6136 102.497 64.8505 101.926L65.2004 101.084C65.4385 100.513 65.8934 100.06 66.4654 99.8238C67.0373 99.5877 67.6796 99.5881 68.2514 99.8247L83.2841 106.068C83.8553 106.305 84.3087 106.76 84.5449 107.332C84.7811 107.904 84.7808 108.546 84.544 109.117L84.194 109.959C83.9559 110.53 83.501 110.983 82.9291 111.219C82.3571 111.455 81.7148 111.455 81.1431 111.218Z" fill="#6C63FF"/>
<path d="M76.7212 121.856L61.6884 115.613C61.1172 115.375 60.6638 114.92 60.4276 114.349C60.1914 113.777 60.1918 113.135 60.4286 112.564L60.7786 111.722C61.0166 111.151 61.4715 110.698 62.0435 110.461C62.6155 110.225 63.2578 110.226 63.8295 110.462L78.8623 116.705C79.4335 116.943 79.8869 117.398 80.1231 117.97C80.3593 118.541 80.3589 119.183 80.1221 119.755L79.7722 120.597C79.5341 121.167 79.0792 121.621 78.5072 121.857C77.9352 122.093 77.2929 122.093 76.7212 121.856Z" fill="#6C63FF"/>
<path d="M87.1667 96.2676C86.9417 96.2674 86.7188 96.2238 86.5104 96.1391L71.3626 90.0178C70.9326 89.8435 70.5892 89.5057 70.408 89.0787C70.2267 88.6516 70.2223 88.1702 70.3958 87.7399L71.5624 84.856C71.7364 84.4258 72.0743 84.0823 72.5018 83.9011C72.9292 83.7199 73.4111 83.7158 73.8415 83.8898L88.9892 90.011C89.4193 90.1854 89.7626 90.5231 89.9439 90.9502C90.1252 91.3772 90.1295 91.8587 89.9561 92.2889L88.7895 95.1729C88.6585 95.4959 88.4341 95.7725 88.1451 95.9675C87.856 96.1625 87.5154 96.267 87.1667 96.2676Z" fill="#CCCCCC"/>
<path d="M55.3521 188H0.889022C0.785847 188 0.686903 187.959 0.613948 187.886C0.540992 187.813 0.5 187.714 0.5 187.611C0.5 187.508 0.540992 187.409 0.613948 187.336C0.686903 187.263 0.785847 187.222 0.889022 187.222H55.3521C55.4553 187.222 55.5542 187.263 55.6272 187.336C55.7001 187.409 55.7411 187.508 55.7411 187.611C55.7411 187.714 55.7001 187.813 55.6272 187.886C55.5542 187.959 55.4553 188 55.3521 188Z" fill="#CCCCCC"/>
</g>
<defs>
<clipPath id="clip0_388_3499">
<rect width="189" height="188" fill="white" transform="translate(0.5)"/>
</clipPath>
</defs>
</svg>
