<svg width="24" height="24" viewBox="0 0 24 24" fill="none" xmlns="http://www.w3.org/2000/svg">
<path d="M19.8511 10.1567H19.2344V10.1249H12.3441V13.1873H16.6708C16.0396 14.97 14.3434 16.2497 12.3441 16.2497C9.80727 16.2497 7.75049 14.1929 7.75049 11.6561C7.75049 9.11928 9.80727 7.06251 12.3441 7.06251C13.515 7.06251 14.5804 7.50426 15.3915 8.22583L17.557 6.06034C16.1897 4.78601 14.3607 4.00012 12.3441 4.00012C8.11607 4.00012 4.68811 7.42808 4.68811 11.6561C4.68811 15.8841 8.11607 19.312 12.3441 19.312C16.5721 19.312 20 15.8841 20 11.6561C20 11.1428 19.9472 10.6417 19.8511 10.1567Z" fill="#FFC107"/>
<path d="M5.57092 8.09262L8.08629 9.93732C8.7669 8.25224 10.4152 7.06251 12.3442 7.06251C13.5151 7.06251 14.5805 7.50426 15.3916 8.22583L17.5571 6.06034C16.1897 4.78601 14.3607 4.00012 12.3442 4.00012C9.4035 4.00012 6.8533 5.66032 5.57092 8.09262Z" fill="#FF3D00"/>
<path d="M12.3442 19.312C14.3217 19.312 16.1185 18.5552 17.4771 17.3245L15.1076 15.3194C14.3389 15.9016 13.3835 16.2496 12.3442 16.2496C10.3528 16.2496 8.66203 14.9799 8.02505 13.2079L5.52844 15.1314C6.7955 17.6108 9.36867 19.312 12.3442 19.312Z" fill="#4CAF50"/>
<path d="M19.851 10.1567H19.2344V10.1249H12.344V13.1873H16.6708C16.3676 14.0436 15.8167 14.782 15.1063 15.3198C15.1066 15.3194 15.107 15.3194 15.1074 15.3191L17.4769 17.3242C17.3093 17.4765 20 15.4841 20 11.6561C20 11.1427 19.9471 10.6417 19.851 10.1567Z" fill="#1976D2"/>
</svg>
