<svg width="32" height="33" viewBox="0 0 32 33" fill="none" xmlns="http://www.w3.org/2000/svg">
<path d="M7.625 23V10.25C7.625 9.14543 8.52043 8.25 9.625 8.25H22.375C23.4796 8.25 24.375 9.14543 24.375 10.25V23C24.375 24.1046 23.4796 25 22.375 25H9.625C8.52043 25 7.625 24.1046 7.625 23Z" stroke="#1A1C1E" stroke-width="1.5" stroke-linejoin="round"/>
<path d="M7.625 20.0369H14.9654C15.2306 20.0369 15.485 19.9316 15.6725 19.744L19.0151 16.4014C19.4056 16.0109 20.0388 16.0109 20.4293 16.4014L24.375 20.3471" stroke="#1A1C1E" stroke-width="1.5" stroke-linejoin="round"/>
<path d="M11.6574 13.523C11.6574 12.8377 12.2129 12.2822 12.8982 12.2822C13.5834 12.2822 14.1389 12.8377 14.1389 13.523C14.1389 14.2082 13.5834 14.7637 12.8982 14.7637C12.2129 14.7637 11.6574 14.2082 11.6574 13.523Z" fill="#1A1C1E"/>
</svg>
