<svg width="175" height="151" viewBox="0 0 175 151" fill="none" xmlns="http://www.w3.org/2000/svg">
<path fill-rule="evenodd" clip-rule="evenodd" d="M86.4623 131.282C78.6778 129.89 70.2245 119.247 62.3598 118.428C49.9762 117.139 33.5837 135.86 27.2133 125.114C20.2739 113.408 38.6879 101.682 35.8353 88.3623C33.0387 75.3041 15.1802 74.1551 13.4628 60.91C12.0414 49.9474 26.2362 42.4955 35.8353 37.0893C44.438 32.2443 54.7651 32.2981 64.6254 32.0954C72.1139 31.9414 81.9498 33.6198 89.2846 32.0954C99.237 30.0269 102.97 21.8885 113.132 22.0138C122.75 22.1324 137.48 27.0173 137.602 36.6789C137.78 50.9157 125.437 60.282 130.569 73.5537C136.879 89.8706 151.223 79.356 159.962 94.5006C165.579 104.236 152.593 116.557 143.924 123.682C135.492 130.613 123.834 131.646 113.032 133.074C104.12 134.253 95.3126 132.864 86.4623 131.282Z" fill="#E2F7ED"/>
<path d="M87.5997 104.395C105.586 104.395 120.166 101.26 120.166 97.3923C120.166 93.5247 105.586 90.3893 87.5997 90.3893C69.6136 90.3893 55.033 93.5247 55.033 97.3923C55.033 101.26 69.6136 104.395 87.5997 104.395Z" fill="#0FBB6B"/>
<path d="M120.166 97.3923C120.166 93.5248 105.586 90.3893 87.5997 90.3893C84.6076 90.3893 81.7108 90.4765 78.9585 90.6391L85.0545 99.6073C85.2246 99.8575 85.4231 100.072 85.641 100.252L89.7682 104.379C106.743 104.139 120.166 101.103 120.166 97.3923Z" fill="url(#paint0_linear_102_2)"/>
<path d="M123.294 53.0896C123.294 33.3762 107.313 17.3953 87.5999 17.3953C67.9723 17.3953 52.104 33.0968 51.9072 52.7235C51.7586 67.5467 60.6474 80.3098 73.4006 85.8452C75.5347 86.7715 77.3601 88.2877 78.668 90.2118L85.0545 99.6073C86.2758 101.404 88.9235 101.404 90.1447 99.6073L96.531 90.2119C97.8348 88.2938 99.6507 86.776 101.779 85.8539C114.437 80.3685 123.294 67.7642 123.294 53.0896Z" fill="url(#paint1_linear_102_2)"/>
<path d="M87.5997 99.176C87.3929 99.176 86.8744 99.1206 86.5255 98.6075L80.1392 89.2118C78.6373 87.0023 76.5521 85.2739 74.1089 84.2137C61.5652 78.7691 53.5488 66.4154 53.6859 52.7412C53.7763 43.7212 57.3392 35.2769 63.7182 28.9636C70.0965 22.651 78.5787 19.1741 87.5997 19.1741H87.5999C106.301 19.1741 121.515 34.3887 121.515 53.0897C121.515 66.6203 113.491 78.8404 101.072 84.2219C98.6426 85.2746 96.5638 87.0001 95.0602 89.2121L88.6739 98.6076C88.325 99.1206 87.8065 99.176 87.5997 99.176Z" fill="url(#paint2_linear_102_2)"/>
<path d="M87.5997 75.5267C99.9914 75.5267 110.037 65.4812 110.037 53.0895C110.037 40.6979 99.9914 30.6524 87.5997 30.6524C75.208 30.6524 65.1626 40.6979 65.1626 53.0895C65.1626 65.4812 75.208 75.5267 87.5997 75.5267Z" fill="url(#paint3_linear_102_2)"/>
<path d="M122.177 61.9765L100.86 40.6595C97.5439 37.1232 92.8303 34.913 87.5997 34.913C77.5611 34.913 69.4232 43.0509 69.4232 53.0895C69.4232 58.3201 71.6333 63.0338 75.1696 66.3501L97.6354 88.8158C98.7898 87.5533 100.198 86.5388 101.779 85.8539C111.791 81.5153 119.423 72.7234 122.177 61.9765Z" fill="url(#paint4_linear_102_2)"/>
<path d="M87.5997 71.2661C97.6383 71.2661 105.776 63.1282 105.776 53.0895C105.776 43.0509 97.6383 34.913 87.5997 34.913C77.5611 34.913 69.4232 43.0509 69.4232 53.0895C69.4232 63.1282 77.5611 71.2661 87.5997 71.2661Z" fill="url(#paint5_linear_102_2)"/>
<defs>
<linearGradient id="paint0_linear_102_2" x1="104.51" y1="100.633" x2="93.739" y2="86.8904" gradientUnits="userSpaceOnUse">
<stop stop-color="#FFDA45" stop-opacity="0"/>
<stop offset="1" stop-color="#B53759"/>
</linearGradient>
<linearGradient id="paint1_linear_102_2" x1="66.0566" y1="31.5453" x2="137.277" y2="102.766" gradientUnits="userSpaceOnUse">
<stop stop-color="#F58229"/>
<stop offset="1" stop-color="#F54A48"/>
</linearGradient>
<linearGradient id="paint2_linear_102_2" x1="79.9451" y1="45.4549" x2="54.9174" y2="20.4272" gradientUnits="userSpaceOnUse">
<stop stop-color="#FF7044" stop-opacity="0"/>
<stop offset="1" stop-color="#FFA425"/>
</linearGradient>
<linearGradient id="paint3_linear_102_2" x1="101.129" y1="66.6189" x2="56.379" y2="21.8688" gradientUnits="userSpaceOnUse">
<stop stop-color="#FF7044"/>
<stop offset="1" stop-color="#F92814"/>
</linearGradient>
<linearGradient id="paint4_linear_102_2" x1="110.942" y1="76.4322" x2="91.1085" y2="56.5984" gradientUnits="userSpaceOnUse">
<stop stop-color="#F54A48" stop-opacity="0"/>
<stop offset="1" stop-color="#F54A48"/>
</linearGradient>
<linearGradient id="paint5_linear_102_2" x1="83.1501" y1="46.3039" x2="93.891" y2="62.6838" gradientUnits="userSpaceOnUse">
<stop stop-color="#F9F7FC"/>
<stop offset="1" stop-color="#F0DDFC"/>
</linearGradient>
</defs>
</svg>
