<svg width="175" height="151" viewBox="0 0 175 151" fill="none" xmlns="http://www.w3.org/2000/svg">
<path fill-rule="evenodd" clip-rule="evenodd" d="M72.0564 24.1584C79.8983 23.1393 91.1662 30.7402 98.9119 29.1507C111.108 26.6479 121.097 3.85751 130.41 12.1839C140.554 21.2539 126.53 37.9848 133.264 49.8253C139.866 61.4336 157.24 57.1473 162.87 69.2591C167.529 79.2836 156.24 90.6669 148.716 98.7146C141.973 105.927 132.11 108.988 122.769 112.153C115.675 114.556 105.791 115.92 99.2566 119.584C90.3902 124.556 89.2837 133.441 79.5559 136.384C70.3498 139.169 54.8317 138.951 51.8046 129.775C47.344 116.253 56.2905 103.603 47.3973 92.4949C36.4633 78.8381 25.9551 93.1866 13.0586 81.3797C4.76872 73.7901 13.4381 58.1284 19.5566 48.7217C25.508 39.5719 36.3123 35.074 46.1813 30.4565C54.3242 26.6467 63.1407 25.317 72.0564 24.1584Z" fill="#E2F7ED"/>
<g clip-path="url(#clip0_1_115)">
<path d="M126.849 33.9243L115.226 50.5171L106.707 44.5496L118.33 27.9568C119.978 25.6044 123.221 25.0332 125.574 26.681C127.926 28.3289 128.497 31.5717 126.849 33.9243ZM62.3609 74.1876L102.522 102.321L102.471 102.393C102.689 102.108 102.843 101.763 102.901 101.369L102.972 100.89C103.993 94.0184 106.639 87.3795 110.624 81.69C116.735 72.9663 114.609 60.8974 105.886 54.7862C97.1618 48.6752 85.0928 50.8008 78.9818 59.5246C74.9963 65.2141 69.6608 69.9688 63.5518 73.2753L63.1255 73.5061C62.7746 73.696 62.5022 73.9593 62.3086 74.2621L62.3609 74.1876ZM70.2066 91.4758L68.9278 93.3014C66.3382 96.9981 67.2358 102.094 70.9325 104.684C74.6293 107.273 79.7253 106.376 82.3149 102.679L83.5937 100.853L70.2066 91.4758Z" fill="url(#paint0_linear_1_115)"/>
<path d="M75.0465 41.1242C75.26 42.3364 74.4503 43.4923 73.2381 43.7058C64.7656 45.198 59.0867 53.3049 60.5789 61.7774C60.7924 62.9897 59.9827 64.1456 58.7704 64.3591C57.5582 64.5726 56.4023 63.7629 56.1888 62.5506C54.2702 51.6574 61.5717 41.2342 72.4649 39.3157C73.6771 39.1022 74.833 39.9119 75.0465 41.1242ZM74.0113 48.0959C67.9595 49.1618 63.9031 54.9524 64.969 61.0042C65.1825 62.2165 66.3384 63.0262 67.5506 62.8127C68.7629 62.5992 69.5726 61.4433 69.3591 60.231C68.7196 56.5999 71.1534 53.1255 74.7845 52.486C75.9967 52.2725 76.8064 51.1166 76.5929 49.9044C76.3794 48.6921 75.2235 47.8824 74.0113 48.0959ZM129.261 79.1018C128.049 79.3153 127.239 80.4712 127.453 81.6834C128.945 90.1559 123.266 98.2628 114.794 99.755C113.581 99.9685 112.772 101.124 112.985 102.337C113.199 103.549 114.355 104.359 115.567 104.145C126.46 102.227 133.762 91.8034 131.843 80.9102C131.629 79.698 130.474 78.8882 129.261 79.1018ZM114.02 95.3649C120.072 94.299 124.129 88.5084 123.063 82.4566C122.849 81.2443 121.693 80.4346 120.481 80.6482C119.269 80.8617 118.459 82.0175 118.673 83.2298C119.312 86.8609 116.878 90.3353 113.247 90.9748C112.035 91.1883 111.225 92.3442 111.439 93.5564C111.652 94.7687 112.808 95.5784 114.02 95.3649ZM115.226 50.5169L106.706 44.5494C104.69 43.1369 101.91 43.6264 100.498 45.6429L96.487 51.3688C99.7611 51.6499 103.005 52.769 105.885 54.7863C108.765 56.8036 110.925 59.4704 112.308 62.4515L116.319 56.7256C117.732 54.7091 117.242 51.9294 115.226 50.5169ZM102.522 102.32L100.817 104.754C98.698 107.779 94.5285 108.513 91.5039 106.395L62.2957 85.9342C59.271 83.8154 58.5367 79.646 60.6555 76.6213L62.3605 74.1873" fill="url(#paint1_linear_1_115)"/>
</g>
<defs>
<linearGradient id="paint0_linear_1_115" x1="70.9325" y1="104.684" x2="125.574" y2="26.6809" gradientUnits="userSpaceOnUse">
<stop stop-color="#FFDE00"/>
<stop offset="1" stop-color="#FFFFE5"/>
</linearGradient>
<linearGradient id="paint1_linear_1_115" x1="76.8998" y1="96.1644" x2="110.966" y2="47.5331" gradientUnits="userSpaceOnUse">
<stop stop-color="#FD5900"/>
<stop offset="1" stop-color="#FFDE00"/>
</linearGradient>
<clipPath id="clip0_1_115">
<rect width="92.0452" height="92.0452" fill="white" transform="translate(51.8847 38.1124) rotate(-9.98866)"/>
</clipPath>
</defs>
</svg>
