<svg width="24" height="24" viewBox="0 0 24 24" fill="none" xmlns="http://www.w3.org/2000/svg">
<g clip-path="url(#clip0_2724_4349)">
<path d="M2 2V11.1304H11.1304V2H2ZM9.82609 9.82609H3.30434V3.30434H9.82609V9.82609Z" fill="black"/>
<path d="M8.52193 4.6084H4.60889V8.52145H8.52193V4.6084Z" fill="black"/>
<path d="M12.8696 2V11.1304H22.0001V2H12.8696ZM20.6957 9.82609H14.174V3.30434H20.6957V9.82609Z" fill="black"/>
<path d="M19.3911 4.6084H15.478V8.52145H19.3911V4.6084Z" fill="black"/>
<path d="M2 12.8691V21.9996H11.1304V12.8691H2ZM9.82609 20.6952H3.30434V14.1735H9.82609V20.6952Z" fill="black"/>
<path d="M8.52193 15.4785H4.60889V19.3916H8.52193V15.4785Z" fill="black"/>
<path d="M15.4783 14.1735V12.8691H12.8696V21.9996H15.4783V20.6952H14.174V18.0865H15.4783V16.7822H14.174V14.1735H15.4783Z" fill="black"/>
<path d="M22.0001 12.8691H20.6958V14.1735H22.0001V12.8691Z" fill="black"/>
<path d="M20.6955 15.9131V20.6957H19.3911V22H21.9998V15.9131H20.6955Z" fill="black"/>
<path d="M19.3914 12.8691H16.7827V14.1735H19.3914V12.8691Z" fill="black"/>
<path d="M19.3914 16.7829V15.4785H16.7827V19.3916H19.3914V18.0872H18.0871V16.7829H19.3914Z" fill="black"/>
<path d="M18.0871 20.6953H16.7827V21.9996H18.0871V20.6953Z" fill="black"/>
</g>
<defs>
<clipPath id="clip0_2724_4349">
<rect width="20" height="20" fill="white" transform="translate(2 2)"/>
</clipPath>
</defs>
</svg>
