<svg width="24" height="24" viewBox="0 0 24 24" fill="none" xmlns="http://www.w3.org/2000/svg">
<path d="M3.62791 10.1163C3.28465 10.1163 3 9.83163 3 9.48837V7.39535C3 4.96744 4.97581 3 7.39535 3H9.48837C9.83163 3 10.1163 3.28465 10.1163 3.62791C10.1163 3.97116 9.83163 4.25581 9.48837 4.25581H7.39535C5.66233 4.25581 4.25581 5.66233 4.25581 7.39535V9.48837C4.25581 9.83163 3.97116 10.1163 3.62791 10.1163Z" fill="#292D32"/>
<path d="M20.372 10.1163C20.0288 10.1163 19.7441 9.83163 19.7441 9.48837V7.39535C19.7441 5.66233 18.3376 4.25581 16.6046 4.25581H14.5116C14.1683 4.25581 13.8837 3.97116 13.8837 3.62791C13.8837 3.28465 14.1683 3 14.5116 3H16.6046C19.0241 3 20.9999 4.96744 20.9999 7.39535V9.48837C20.9999 9.83163 20.7153 10.1163 20.372 10.1163Z" fill="#292D32"/>
<path d="M16.6047 21H15.3489C15.0056 21 14.7209 20.7154 14.7209 20.3721C14.7209 20.0289 15.0056 19.7442 15.3489 19.7442H16.6047C18.3377 19.7442 19.7442 18.3377 19.7442 16.6047V15.3489C19.7442 15.0056 20.0289 14.7209 20.3721 14.7209C20.7154 14.7209 21 15.0056 21 15.3489V16.6047C21 19.0326 19.0242 21 16.6047 21Z" fill="#292D32"/>
<path d="M9.48837 20.9999H7.39535C4.97581 20.9999 3 19.0325 3 16.6046V14.5116C3 14.1683 3.28465 13.8837 3.62791 13.8837C3.97116 13.8837 4.25581 14.1683 4.25581 14.5116V16.6046C4.25581 18.3376 5.66233 19.7441 7.39535 19.7441H9.48837C9.83163 19.7441 10.1163 20.0288 10.1163 20.372C10.1163 20.7153 9.83163 20.9999 9.48837 20.9999Z" fill="#292D32"/>
<path d="M13.6744 17.2326H10.3256C8.29952 17.2326 7.18604 16.1191 7.18604 14.093V9.90699C7.18604 7.88094 8.29952 6.76746 10.3256 6.76746H13.6744C15.7005 6.76746 16.8139 7.88094 16.8139 9.90699V14.093C16.8139 16.1191 15.7005 17.2326 13.6744 17.2326ZM10.3256 8.02327C9.00278 8.02327 8.44185 8.5842 8.44185 9.90699V14.093C8.44185 15.4158 9.00278 15.9768 10.3256 15.9768H13.6744C14.9972 15.9768 15.5581 15.4158 15.5581 14.093V9.90699C15.5581 8.5842 14.9972 8.02327 13.6744 8.02327H10.3256Z" fill="#292D32"/>
<path d="M17.8604 12.6279H6.1395C5.79625 12.6279 5.5116 12.3432 5.5116 12C5.5116 11.6567 5.79625 11.3721 6.1395 11.3721H17.8604C18.2037 11.3721 18.4883 11.6567 18.4883 12C18.4883 12.3432 18.2037 12.6279 17.8604 12.6279Z" fill="#292D32"/>
</svg>
