<svg width="25" height="25" viewBox="0 0 25 25" fill="none" xmlns="http://www.w3.org/2000/svg">
<path d="M9.18948 3.37123C9.59448 3.37123 9.92281 3.72301 9.92281 4.15695C9.92281 4.54267 9.66339 4.86348 9.3213 4.93L9.18948 4.94266H4.78947C3.64591 4.94266 2.70615 5.87748 2.59954 7.0728L2.58947 7.29981V19.8712C2.58947 21.0964 3.46197 22.1034 4.5776 22.2176L4.78947 22.2284H16.5228C17.6663 22.2284 18.6061 21.2935 18.7128 20.0982L18.7228 19.8712V18.2998C18.7228 17.8659 19.0512 17.5141 19.4562 17.5141C19.8161 17.5141 20.1156 17.7921 20.1777 18.1586L20.1895 18.2998V19.8712C20.1895 21.9541 18.6766 23.6584 16.7639 23.7914L16.5228 23.7998H4.78947C2.84543 23.7998 1.25475 22.1788 1.1306 20.1295L1.1228 19.8712V7.29981C1.1228 5.21691 2.63573 3.5126 4.54839 3.37959L4.78947 3.37123H9.18948ZM14.8766 2.70781C14.8766 2.00415 15.554 1.6035 16.0739 1.89689L16.1826 1.97053L16.273 2.05383L22.8688 9.0014C23.1424 9.2896 23.195 9.73312 23.0264 10.081L22.9528 10.2064L22.8689 10.3093L16.2732 17.259C15.8108 17.7463 15.0784 17.4868 14.9113 16.8716L14.8844 16.7345L14.8766 16.6052V13.3122L14.4987 13.3487C14.1336 13.3905 13.7708 13.4515 13.41 13.5316C11.1604 14.0318 8.99072 15.2794 6.89064 17.2884C6.31947 17.835 5.43579 17.3183 5.52973 16.4928C6.2429 10.226 9.17046 6.70162 14.1594 6.11744L14.5472 6.0783L14.8766 6.05456V2.70781ZM16.3433 4.33144V7.52383L14.6547 7.64552C12.3466 7.8436 10.6449 8.70507 9.42884 10.1103C8.44759 11.2442 7.70071 12.8271 7.26336 14.9299C9.33946 13.2629 11.5322 12.2182 13.8453 11.8538L14.3551 11.7847L16.3433 11.5933V14.9813L21.3977 9.65546L16.3433 4.33144Z" fill="#212121"/>
</svg>
