<svg width="24" height="24" viewBox="0 0 24 24" fill="none" xmlns="http://www.w3.org/2000/svg">
<path d="M20.7225 6.5C20.376 5.9045 19.7385 5.5 19 5.5H12V6.5H20.7225ZM3 15.5H21V16.5H3V15.5ZM12 11.5H21V12.5H12V11.5ZM12 9.5H21V10.5H12V9.5ZM3 13.5H21V14.5H3V13.5ZM5 18.5H19C19.7385 18.5 20.376 18.0955 20.7225 17.5H3.2775C3.624 18.0955 4.2615 18.5 5 18.5ZM12 7.5H21V8.5H12V7.5Z" fill="#B22334"/>
<path d="M3.034 16.8395C3.0425 16.886 3.052 16.9325 3.0635 16.978C3.0765 17.0285 3.0925 17.077 3.1095 17.126C3.154 17.2555 3.208 17.3805 3.276 17.4975L3.2775 17.5H20.7225L20.7235 17.498C20.7906 17.3801 20.8462 17.256 20.8895 17.1275C20.9224 17.0337 20.9478 16.9374 20.9655 16.8395C20.986 16.7295 21 16.6165 21 16.5H3C3 16.6165 3.014 16.729 3.034 16.8395ZM3 14.5H21V15.5H3V14.5ZM3 12.5V13.5H21V12.5H12H3ZM12 10.5H21V11.5H12V10.5ZM12 8.5H21V9.5H12V8.5ZM3.064 7.022C3.0765 6.971 3.094 6.9225 3.11 6.8735C3.09264 6.92235 3.07729 6.97189 3.064 7.022ZM12 7.5H21C21 7.3835 20.986 7.2705 20.9655 7.16C20.948 7.06205 20.9224 6.96572 20.889 6.872C20.8457 6.74291 20.7899 6.61832 20.7225 6.5H12V7.5Z" fill="#EEEEEE"/>
<path d="M12 5.5H5C4.46957 5.5 3.96086 5.71071 3.58579 6.08579C3.21071 6.46086 3 6.96957 3 7.5L3 12.5H12V5.5Z" fill="#3C3B6E"/>
<path d="M4.00037 6.863L4.30937 7.0875L4.19137 7.45L4.49987 7.226L4.80887 7.45L4.69087 7.0875L4.99987 6.863H4.61787L4.49987 6.5L4.38237 6.863H4.00037ZM5.00037 7.863L5.30937 8.0875L5.19137 8.45L5.49987 8.226L5.80887 8.45L5.69087 8.0875L5.99987 7.863H5.61787L5.49987 7.5L5.38237 7.863H5.00037ZM7.00037 7.863L7.30937 8.0875L7.19137 8.45L7.49987 8.226L7.80887 8.45L7.69087 8.0875L7.99987 7.863H7.61787L7.49987 7.5L7.38237 7.863H7.00037ZM9.00037 7.863L9.30937 8.0875L9.19137 8.45L9.49987 8.226L9.80887 8.45L9.69087 8.0875L9.99987 7.863H9.61787L9.49987 7.5L9.38237 7.863H9.00037ZM5.00037 9.863L5.30937 10.0875L5.19137 10.45L5.49987 10.226L5.80887 10.45L5.69087 10.0875L5.99987 9.863H5.61787L5.49987 9.5L5.38237 9.863H5.00037ZM7.00037 9.863L7.30937 10.0875L7.19137 10.45L7.49987 10.226L7.80887 10.45L7.69087 10.0875L7.99987 9.863H7.61787L7.49987 9.5L7.38237 9.863H7.00037ZM9.00037 9.863L9.30937 10.0875L9.19137 10.45L9.49987 10.226L9.80887 10.45L9.69087 10.0875L9.99987 9.863H9.61787L9.49987 9.5L9.38237 9.863H9.00037ZM6.00037 6.863L6.30937 7.0875L6.19137 7.45L6.49987 7.226L6.80887 7.45L6.69087 7.0875L6.99987 6.863H6.61787L6.49987 6.5L6.38237 6.863H6.00037ZM8.00037 6.863L8.30937 7.0875L8.19137 7.45L8.49987 7.226L8.80887 7.45L8.69087 7.0875L8.99987 6.863H8.61787L8.49987 6.5L8.38237 6.863H8.00037ZM10.0004 6.863L10.3094 7.0875L10.1914 7.45L10.4999 7.226L10.8089 7.45L10.6909 7.0875L10.9999 6.863H10.6179L10.4999 6.5L10.3824 6.863H10.0004ZM4.00037 8.863L4.30937 9.0875L4.19137 9.45L4.49987 9.226L4.80887 9.45L4.69087 9.0875L4.99987 8.863H4.61787L4.49987 8.5L4.38237 8.863H4.00037ZM6.19137 9.45L6.49987 9.226L6.80887 9.45L6.69087 9.0875L6.99987 8.863H6.61787L6.49987 8.5L6.38237 8.863H6.00037L6.30937 9.0875L6.19137 9.45ZM8.00037 8.863L8.30937 9.0875L8.19137 9.45L8.49987 9.226L8.80887 9.45L8.69087 9.0875L8.99987 8.863H8.61787L8.49987 8.5L8.38237 8.863H8.00037ZM10.0004 8.863L10.3094 9.0875L10.1914 9.45L10.4999 9.226L10.8089 9.45L10.6909 9.0875L10.9999 8.863H10.6179L10.4999 8.5L10.3824 8.863H10.0004ZM4.00037 10.863L4.30937 11.0875L4.19137 11.45L4.49987 11.226L4.80887 11.45L4.69087 11.0875L4.99987 10.863H4.61787L4.49987 10.5L4.38237 10.863H4.00037ZM6.19137 11.45L6.49987 11.226L6.80887 11.45L6.69087 11.0875L6.99987 10.863H6.61787L6.49987 10.5L6.38237 10.863H6.00037L6.30937 11.0875L6.19137 11.45ZM8.00037 10.863L8.30937 11.0875L8.19137 11.45L8.49987 11.226L8.80887 11.45L8.69087 11.0875L8.99987 10.863H8.61787L8.49987 10.5L8.38237 10.863H8.00037ZM10.0004 10.863L10.3094 11.0875L10.1914 11.45L10.4999 11.226L10.8089 11.45L10.6909 11.0875L10.9999 10.863H10.6179L10.4999 10.5L10.3824 10.863H10.0004Z" fill="white"/>
</svg>
