<svg width="32" height="33" viewBox="0 0 32 33" fill="none" xmlns="http://www.w3.org/2000/svg">
<path d="M12.5538 11.9136C12.5389 12.3662 12.6132 12.8173 12.7725 13.2411C12.9319 13.6649 13.1732 14.0532 13.4826 14.3838C13.792 14.7144 14.1635 14.9808 14.5759 15.1679C14.9883 15.3549 15.4334 15.4588 15.886 15.4738C16.3385 15.4888 16.7896 15.4145 17.2135 15.2551C17.6373 15.0958 18.0256 14.8545 18.3562 14.5451C18.6868 14.2356 18.9532 13.8641 19.1402 13.4518C19.3272 13.0394 19.4312 12.5942 19.4462 12.1416C19.4611 11.6891 19.3868 11.238 19.2275 10.8142C19.0681 10.3903 18.8268 10.002 18.5174 9.67145C18.208 9.34086 17.8365 9.07445 17.4241 8.88743C17.0117 8.70041 16.5666 8.59645 16.114 8.58148C15.6614 8.5665 15.2104 8.64082 14.7865 8.80017C14.3627 8.95952 13.9744 9.2008 13.6438 9.51022C13.3132 9.81964 13.0468 10.1911 12.8598 10.6035C12.6728 11.0159 12.5688 11.4611 12.5538 11.9136Z" stroke="#1A1C1E" stroke-width="1.5" stroke-linecap="round" stroke-linejoin="round"/>
<path d="M22.8961 24.6706C22.3311 23.3098 21.3744 22.1467 20.1469 21.3284C18.9194 20.51 17.4763 20.0732 16 20.0732C14.5237 20.0732 13.0805 20.51 11.853 21.3284C10.6256 22.1467 9.66884 23.3098 9.10388 24.6706" stroke="#1A1C1E" stroke-width="1.5" stroke-linecap="round" stroke-linejoin="round"/>
</svg>
