<svg width="24" height="24" viewBox="0 0 24 24" fill="none" xmlns="http://www.w3.org/2000/svg">
<path fill-rule="evenodd" clip-rule="evenodd" d="M3 9C3 5.68629 5.68629 3 9 3H15C18.3137 3 21 5.68629 21 9C21 12.3137 18.3137 15 15 15H9C5.68629 15 3 12.3137 3 9ZM9 1C4.58172 1 1 4.58172 1 9C1 13.4183 4.58172 17 9 17H15C19.4183 17 23 13.4183 23 9C23 4.58172 19.4183 1 15 1H9ZM11 22C11 22.5523 11.4477 23 12 23C12.5523 23 13 22.5523 13 22V20C13 19.4477 12.5523 19 12 19C11.4477 19 11 19.4477 11 20V22Z" fill="#24262B"/>
<path fill-rule="evenodd" clip-rule="evenodd" d="M9.60557 8.55284C9.45058 8.86282 9.46715 9.23096 9.64935 9.52578C9.83156 9.82059 10.1534 10 10.5 10H11.882L11.1056 11.5528C10.8586 12.0468 11.0588 12.6475 11.5528 12.8945C12.0468 13.1415 12.6474 12.9412 12.8944 12.4473L14.3944 9.44725C14.5494 9.13727 14.5329 8.76913 14.3507 8.47431C14.1684 8.17949 13.8466 8.00004 13.5 8.00004H12.118L12.8944 6.44718C13.1414 5.9532 12.9412 5.35253 12.4472 5.10554C11.9532 4.85856 11.3526 5.05879 11.1056 5.55277L9.60557 8.55284ZM8 18V16.9381C8.32759 16.979 8.66134 17 9 17H10V18C10 18.5523 10.4477 19 11 19H13C13.5523 19 14 18.5523 14 18V17H15C15.3387 17 15.6724 16.979 16 16.9381V18C16 19.6569 14.6569 21 13 21H11C9.34315 21 8 19.6569 8 18Z" fill="#633FE8"/>
</svg>
