<svg width="19" height="20" viewBox="0 0 19 20" fill="none" xmlns="http://www.w3.org/2000/svg">
<path d="M16.3249 7.46823C16.3249 7.46823 15.7819 14.2032 15.4669 17.0402C15.3169 18.3952 14.4799 19.1892 13.1089 19.2142C10.4999 19.2612 7.88794 19.2642 5.27994 19.2092C3.96094 19.1822 3.13794 18.3782 2.99094 17.0472C2.67394 14.1852 2.13394 7.46823 2.13394 7.46823M17.7082 4.23973H0.750244M14.4406 4.23973C13.6556 4.23973 12.9796 3.68473 12.8256 2.91573L12.5826 1.69973C12.4326 1.13873 11.9246 0.750732 11.3456 0.750732H7.11264C6.53364 0.750732 6.02564 1.13873 5.87564 1.69973L5.63264 2.91573C5.47864 3.68473 4.80264 4.23973 4.01764 4.23973" stroke="#24262B" stroke-width="1.5" stroke-linecap="round" stroke-linejoin="round"/>
</svg>
