<svg width="24" height="24" viewBox="0 0 24 24" fill="none" xmlns="http://www.w3.org/2000/svg">
<path d="M10.6921 12.0001H17.0101V13.8521M14.1819 13.8522V12.0002M16.3342 2.75012H7.66524C4.64424 2.75012 2.75024 4.88912 2.75024 7.91612V16.0841C2.75024 19.1111 4.63524 21.2501 7.66524 21.2501H16.3332C19.3642 21.2501 21.2502 19.1111 21.2502 16.0841V7.91612C21.2502 4.88912 19.3642 2.75012 16.3342 2.75012ZM10.6892 12.0001C10.6892 13.0231 9.86024 13.8521 8.83724 13.8521C7.81424 13.8521 6.98524 13.0231 6.98524 12.0001C6.98524 10.9771 7.81424 10.1481 8.83724 10.1481H8.84024C9.86124 10.1491 10.6892 10.9781 10.6892 12.0001Z" stroke="#24262B" stroke-width="1.5" stroke-linecap="round" stroke-linejoin="round"/>
</svg>
