<svg width="24" height="24" viewBox="0 0 24 24" fill="none" xmlns="http://www.w3.org/2000/svg">
<path fill-rule="evenodd" clip-rule="evenodd" d="M6.05276 2.10555C6.54674 1.85856 7.14741 2.05878 7.3944 2.55276L11.118 9.99997H18.3119C20.3215 9.99997 21.7628 11.9372 21.1854 13.862L19.3854 19.862C19.0047 21.131 17.8367 22 16.5119 22H7.488C6.16318 22 4.99521 21.131 4.61452 19.862L2.81452 13.862C2.23707 11.9372 3.67841 9.99997 5.688 9.99997H7.08579L3.29289 6.20708C2.90237 5.81655 2.90237 5.18339 3.29289 4.79286C3.68342 4.40234 4.31658 4.40234 4.70711 4.79286L7.84966 7.93542L5.60555 3.44719C5.35856 2.95321 5.55878 2.35254 6.05276 2.10555ZM10.5219 12C10.5078 12.0003 10.4937 12.0003 10.4796 12H5.688C5.01814 12 4.53769 12.6457 4.73018 13.2873L6.53018 19.2873C6.65707 19.7103 7.04639 20 7.488 20H16.5119C16.9535 20 17.3428 19.7103 17.4697 19.2873L19.2697 13.2873C19.4622 12.6457 18.9817 12 18.3119 12H10.5219Z" fill="#24262B"/>
<path d="M18 2.5C18 1.94772 17.5523 1.5 17 1.5C16.4477 1.5 16 1.94772 16 2.5V5C16 5.55228 16.4477 6 17 6C17.5523 6 18 5.55228 18 5V2.5Z" fill="#633FE8"/>
<path d="M14 3.5C14.5523 3.5 15 3.94772 15 4.5V7C15 7.55228 14.5523 8 14 8C13.4477 8 13 7.55228 13 7V4.5C13 3.94772 13.4477 3.5 14 3.5Z" fill="#633FE8"/>
</svg>
