<svg width="24" height="24" viewBox="0 0 24 24" fill="none" xmlns="http://www.w3.org/2000/svg">
<path d="M17.8064 10.4516C17.4969 10.4503 17.1944 10.5435 16.9393 10.7187C16.8343 10.4158 16.6379 10.153 16.3772 9.96644C16.1165 9.77993 15.8044 9.67893 15.4838 9.67737C15.1743 9.67614 14.8719 9.76931 14.6167 9.94447C14.5117 9.64159 14.3154 9.37877 14.0547 9.19225C13.794 9.00574 13.4818 8.90473 13.1612 8.90318C12.8884 8.90432 12.6208 8.97922 12.387 9.11995V5.41931C12.3872 5.18928 12.3361 4.9621 12.2375 4.75428C12.1389 4.54647 11.9952 4.36324 11.8168 4.21792C11.6385 4.0726 11.4301 3.96884 11.2066 3.91417C10.9832 3.8595 10.7504 3.85531 10.5251 3.90189C10.1693 3.98208 9.8521 4.18265 9.62711 4.46971C9.40211 4.75677 9.28313 5.11271 9.29027 5.47737V14.4541L8.22963 13.2425C7.9016 12.8703 7.44318 12.6383 6.94902 12.5944C6.45486 12.5504 5.96269 12.6979 5.57414 13.0064L5.30318 13.2232C5.08256 13.3939 4.93285 13.6401 4.88283 13.9145C4.83281 14.1889 4.88601 14.4721 5.03221 14.7096L7.79221 19.1612C8.32214 20.1306 9.09656 20.9443 10.0385 21.5215C10.9804 22.0988 12.057 22.4194 13.1612 22.4516C14.8039 22.4516 16.3792 21.799 17.5407 20.6375C18.7023 19.476 19.3548 17.9006 19.3548 16.258V12C19.3548 11.5893 19.1917 11.1955 18.9013 10.9051C18.6109 10.6147 18.2171 10.4516 17.8064 10.4516ZM18.5806 16.258C18.5806 17.6953 18.0096 19.0738 16.9933 20.0901C15.977 21.1064 14.5985 21.6774 13.1612 21.6774C12.1914 21.6449 11.247 21.3591 10.4219 20.8484C9.59674 20.3377 8.91968 19.6199 8.45801 18.7664L5.70576 14.2916C5.66116 14.2173 5.64482 14.1295 5.65975 14.0441C5.67469 13.9588 5.71988 13.8817 5.78705 13.827L6.05801 13.6103C6.29118 13.4261 6.58608 13.3383 6.88204 13.3649C7.17799 13.3915 7.45247 13.5306 7.64898 13.7535L9.38705 15.7393C9.43902 15.7982 9.5077 15.84 9.58396 15.8589C9.66022 15.8779 9.74044 15.8732 9.81397 15.8455C9.88749 15.8177 9.95084 15.7683 9.99558 15.7037C10.0403 15.6391 10.0644 15.5624 10.0645 15.4838V5.47737C10.0557 5.28958 10.1116 5.10445 10.2229 4.95296C10.3343 4.80147 10.4942 4.69279 10.6761 4.64511C10.8025 4.61867 10.9336 4.62431 11.0573 4.66149C11.1811 4.69868 11.2935 4.76624 11.3845 4.85802C11.4583 4.93141 11.5166 5.01895 11.5559 5.11539C11.5951 5.21183 11.6145 5.3152 11.6129 5.41931V13.1612C11.6129 13.2639 11.6536 13.3624 11.7262 13.435C11.7988 13.5076 11.8973 13.5483 11.9999 13.5483C12.1026 13.5483 12.2011 13.5076 12.2737 13.435C12.3463 13.3624 12.387 13.2639 12.387 13.1612V10.4516C12.387 10.2462 12.4686 10.0493 12.6138 9.90413C12.759 9.75894 12.9559 9.67737 13.1612 9.67737C13.3666 9.67737 13.5635 9.75894 13.7087 9.90413C13.8539 10.0493 13.9354 10.2462 13.9354 10.4516V13.1612C13.9354 13.2639 13.9762 13.3624 14.0488 13.435C14.1214 13.5076 14.2199 13.5483 14.3225 13.5483C14.4252 13.5483 14.5237 13.5076 14.5962 13.435C14.6688 13.3624 14.7096 13.2639 14.7096 13.1612V11.2258C14.7096 11.0204 14.7912 10.8235 14.9364 10.6783C15.0816 10.5331 15.2785 10.4516 15.4838 10.4516C15.6891 10.4516 15.8861 10.5331 16.0313 10.6783C16.1764 10.8235 16.258 11.0204 16.258 11.2258V13.1612C16.258 13.2639 16.2988 13.3624 16.3714 13.435C16.444 13.5076 16.5424 13.5483 16.6451 13.5483C16.7478 13.5483 16.8462 13.5076 16.9188 13.435C16.9914 13.3624 17.0322 13.2639 17.0322 13.1612V12C17.0322 11.7946 17.1138 11.5977 17.259 11.4525C17.4042 11.3073 17.6011 11.2258 17.8064 11.2258C18.0117 11.2258 18.2086 11.3073 18.3538 11.4525C18.499 11.5977 18.5806 11.7946 18.5806 12V16.258ZM10.8387 3.48382C10.9413 3.48382 11.0398 3.44304 11.1124 3.37045C11.185 3.29785 11.2258 3.19939 11.2258 3.09673V1.93544C11.2258 1.83277 11.185 1.73431 11.1124 1.66172C11.0398 1.58912 10.9413 1.54834 10.8387 1.54834C10.736 1.54834 10.6375 1.58912 10.5649 1.66172C10.4923 1.73431 10.4516 1.83277 10.4516 1.93544V3.09673C10.4516 3.19939 10.4923 3.29785 10.5649 3.37045C10.6375 3.44304 10.736 3.48382 10.8387 3.48382Z" fill="#24262B"/>
<path d="M13.1612 5.03221C13.1612 5.13488 13.202 5.23333 13.2746 5.30593C13.3472 5.37852 13.4457 5.41931 13.5483 5.41931H14.7096C14.8123 5.41931 14.9108 5.37852 14.9833 5.30593C15.0559 5.23333 15.0967 5.13488 15.0967 5.03221C15.0967 4.92955 15.0559 4.83109 14.9833 4.75849C14.9108 4.6859 14.8123 4.64511 14.7096 4.64511H13.5483C13.4457 4.64511 13.3472 4.6859 13.2746 4.75849C13.202 4.83109 13.1612 4.92955 13.1612 5.03221ZM6.96769 5.41931H8.12898C8.23165 5.41931 8.33011 5.37852 8.4027 5.30593C8.4753 5.23333 8.51608 5.13488 8.51608 5.03221C8.51608 4.92955 8.4753 4.83109 8.4027 4.75849C8.33011 4.6859 8.23165 4.64511 8.12898 4.64511H6.96769C6.86503 4.64511 6.76657 4.6859 6.69397 4.75849C6.62138 4.83109 6.58059 4.92955 6.58059 5.03221C6.58059 5.13488 6.62138 5.23333 6.69397 5.30593C6.76657 5.37852 6.86503 5.41931 6.96769 5.41931ZM8.62834 3.75866C8.66432 3.79494 8.70714 3.82374 8.75431 3.84339C8.80148 3.86305 8.85207 3.87317 8.90318 3.87317C8.95428 3.87317 9.00487 3.86305 9.05204 3.84339C9.09922 3.82374 9.14203 3.79494 9.17801 3.75866C9.2143 3.72268 9.24309 3.67986 9.26275 3.63269C9.2824 3.58552 9.29252 3.53493 9.29252 3.48382C9.29252 3.43272 9.2824 3.38213 9.26275 3.33496C9.24309 3.28778 9.2143 3.24497 9.17801 3.20898L8.40382 2.43479C8.36773 2.3987 8.32488 2.37007 8.27772 2.35054C8.23057 2.331 8.18002 2.32095 8.12898 2.32095C8.0259 2.32095 7.92704 2.3619 7.85414 2.43479C7.78125 2.50768 7.7403 2.60655 7.7403 2.70963C7.7403 2.81271 7.78125 2.91158 7.85414 2.98447L8.62834 3.75866ZM12.7741 3.87092C12.8251 3.87121 12.8756 3.86145 12.9228 3.84219C12.9699 3.82292 13.0128 3.79454 13.049 3.75866L13.8232 2.98447C13.8593 2.94838 13.8879 2.90553 13.9074 2.85837C13.927 2.81121 13.937 2.76067 13.937 2.70963C13.937 2.65859 13.927 2.60805 13.9074 2.56089C13.8879 2.51373 13.8593 2.47088 13.8232 2.43479C13.7871 2.3987 13.7442 2.37007 13.6971 2.35054C13.6499 2.331 13.5994 2.32095 13.5483 2.32095C13.4973 2.32095 13.4468 2.331 13.3996 2.35054C13.3524 2.37007 13.3096 2.3987 13.2735 2.43479L12.4993 3.20898C12.463 3.24497 12.4342 3.28778 12.4146 3.33496C12.3949 3.38213 12.3848 3.43272 12.3848 3.48382C12.3848 3.53493 12.3949 3.58552 12.4146 3.63269C12.4342 3.67986 12.463 3.72268 12.4993 3.75866C12.5355 3.79454 12.5784 3.82292 12.6255 3.84219C12.6727 3.86145 12.7232 3.87121 12.7741 3.87092Z" fill="#24262B"/>
<path d="M17.8064 10.4516C17.4969 10.4503 17.1944 10.5435 16.9393 10.7187C16.8343 10.4158 16.6379 10.153 16.3772 9.96644C16.1165 9.77993 15.8044 9.67893 15.4838 9.67737C15.1743 9.67614 14.8719 9.76931 14.6167 9.94447C14.5117 9.64159 14.3154 9.37877 14.0547 9.19225C13.794 9.00574 13.4818 8.90473 13.1612 8.90318C12.8884 8.90432 12.6208 8.97922 12.387 9.11995V5.41931C12.3872 5.18928 12.3361 4.9621 12.2375 4.75428C12.1389 4.54647 11.9952 4.36324 11.8168 4.21792C11.6385 4.0726 11.4301 3.96884 11.2066 3.91417C10.9832 3.8595 10.7504 3.85531 10.5251 3.90189C10.1693 3.98208 9.8521 4.18265 9.62711 4.46971C9.40211 4.75677 9.28313 5.11271 9.29027 5.47737V14.4541L8.22963 13.2425C7.9016 12.8703 7.44318 12.6383 6.94902 12.5944C6.45486 12.5504 5.96269 12.6979 5.57414 13.0064L5.30318 13.2232C5.08256 13.3939 4.93285 13.6401 4.88283 13.9145C4.83281 14.1889 4.88601 14.4721 5.03221 14.7096L7.79221 19.1612C8.32214 20.1306 9.09656 20.9443 10.0385 21.5215C10.9804 22.0988 12.057 22.4194 13.1612 22.4516C14.8039 22.4516 16.3792 21.799 17.5407 20.6375C18.7023 19.476 19.3548 17.9006 19.3548 16.258V12C19.3548 11.5893 19.1917 11.1955 18.9013 10.9051C18.6109 10.6147 18.2171 10.4516 17.8064 10.4516ZM18.5806 16.258C18.5806 17.6953 18.0096 19.0738 16.9933 20.0901C15.977 21.1064 14.5985 21.6774 13.1612 21.6774C12.1914 21.6449 11.247 21.3591 10.4219 20.8484C9.59674 20.3377 8.91968 19.6199 8.45801 18.7664L5.70576 14.2916C5.66116 14.2173 5.64482 14.1295 5.65975 14.0441C5.67469 13.9588 5.71988 13.8817 5.78705 13.827L6.05801 13.6103C6.29118 13.4261 6.58608 13.3383 6.88204 13.3649C7.17799 13.3915 7.45247 13.5306 7.64898 13.7535L9.38705 15.7393C9.43902 15.7982 9.5077 15.84 9.58396 15.8589C9.66022 15.8779 9.74044 15.8732 9.81397 15.8455C9.88749 15.8177 9.95084 15.7683 9.99558 15.7037C10.0403 15.6391 10.0644 15.5624 10.0645 15.4838V5.47737C10.0557 5.28958 10.1116 5.10445 10.2229 4.95296C10.3343 4.80147 10.4942 4.69279 10.6761 4.64511C10.8025 4.61867 10.9336 4.62431 11.0573 4.66149C11.1811 4.69868 11.2935 4.76624 11.3845 4.85802C11.4583 4.93141 11.5166 5.01895 11.5559 5.11539C11.5951 5.21183 11.6145 5.3152 11.6129 5.41931V13.1612C11.6129 13.2639 11.6536 13.3624 11.7262 13.435C11.7988 13.5076 11.8973 13.5483 11.9999 13.5483C12.1026 13.5483 12.2011 13.5076 12.2737 13.435C12.3463 13.3624 12.387 13.2639 12.387 13.1612V10.4516C12.387 10.2462 12.4686 10.0493 12.6138 9.90413C12.759 9.75894 12.9559 9.67737 13.1612 9.67737C13.3666 9.67737 13.5635 9.75894 13.7087 9.90413C13.8539 10.0493 13.9354 10.2462 13.9354 10.4516V13.1612C13.9354 13.2639 13.9762 13.3624 14.0488 13.435C14.1214 13.5076 14.2199 13.5483 14.3225 13.5483C14.4252 13.5483 14.5237 13.5076 14.5962 13.435C14.6688 13.3624 14.7096 13.2639 14.7096 13.1612V11.2258C14.7096 11.0204 14.7912 10.8235 14.9364 10.6783C15.0816 10.5331 15.2785 10.4516 15.4838 10.4516C15.6891 10.4516 15.8861 10.5331 16.0313 10.6783C16.1764 10.8235 16.258 11.0204 16.258 11.2258V13.1612C16.258 13.2639 16.2988 13.3624 16.3714 13.435C16.444 13.5076 16.5424 13.5483 16.6451 13.5483C16.7478 13.5483 16.8462 13.5076 16.9188 13.435C16.9914 13.3624 17.0322 13.2639 17.0322 13.1612V12C17.0322 11.7946 17.1138 11.5977 17.259 11.4525C17.4042 11.3073 17.6011 11.2258 17.8064 11.2258C18.0117 11.2258 18.2086 11.3073 18.3538 11.4525C18.499 11.5977 18.5806 11.7946 18.5806 12V16.258ZM10.8387 3.48382C10.9413 3.48382 11.0398 3.44304 11.1124 3.37045C11.185 3.29785 11.2258 3.19939 11.2258 3.09673V1.93544C11.2258 1.83277 11.185 1.73431 11.1124 1.66172C11.0398 1.58912 10.9413 1.54834 10.8387 1.54834C10.736 1.54834 10.6375 1.58912 10.5649 1.66172C10.4923 1.73431 10.4516 1.83277 10.4516 1.93544V3.09673C10.4516 3.19939 10.4923 3.29785 10.5649 3.37045C10.6375 3.44304 10.736 3.48382 10.8387 3.48382Z" stroke="#24262B" stroke-width="0.3"/>
<path d="M13.1612 5.03221C13.1612 5.13488 13.202 5.23333 13.2746 5.30593C13.3472 5.37852 13.4457 5.41931 13.5483 5.41931H14.7096C14.8123 5.41931 14.9108 5.37852 14.9833 5.30593C15.0559 5.23333 15.0967 5.13488 15.0967 5.03221C15.0967 4.92955 15.0559 4.83109 14.9833 4.75849C14.9108 4.6859 14.8123 4.64511 14.7096 4.64511H13.5483C13.4457 4.64511 13.3472 4.6859 13.2746 4.75849C13.202 4.83109 13.1612 4.92955 13.1612 5.03221ZM6.96769 5.41931H8.12898C8.23165 5.41931 8.33011 5.37852 8.4027 5.30593C8.4753 5.23333 8.51608 5.13488 8.51608 5.03221C8.51608 4.92955 8.4753 4.83109 8.4027 4.75849C8.33011 4.6859 8.23165 4.64511 8.12898 4.64511H6.96769C6.86503 4.64511 6.76657 4.6859 6.69397 4.75849C6.62138 4.83109 6.58059 4.92955 6.58059 5.03221C6.58059 5.13488 6.62138 5.23333 6.69397 5.30593C6.76657 5.37852 6.86503 5.41931 6.96769 5.41931ZM8.62834 3.75866C8.66432 3.79494 8.70714 3.82374 8.75431 3.84339C8.80148 3.86305 8.85207 3.87317 8.90318 3.87317C8.95428 3.87317 9.00487 3.86305 9.05204 3.84339C9.09922 3.82374 9.14203 3.79494 9.17801 3.75866C9.2143 3.72268 9.24309 3.67986 9.26275 3.63269C9.2824 3.58552 9.29252 3.53493 9.29252 3.48382C9.29252 3.43272 9.2824 3.38213 9.26275 3.33496C9.24309 3.28778 9.2143 3.24497 9.17801 3.20898L8.40382 2.43479C8.36773 2.3987 8.32488 2.37007 8.27772 2.35054C8.23057 2.331 8.18002 2.32095 8.12898 2.32095C8.0259 2.32095 7.92704 2.3619 7.85414 2.43479C7.78125 2.50768 7.7403 2.60655 7.7403 2.70963C7.7403 2.81271 7.78125 2.91158 7.85414 2.98447L8.62834 3.75866ZM12.7741 3.87092C12.8251 3.87121 12.8756 3.86145 12.9228 3.84219C12.9699 3.82292 13.0128 3.79454 13.049 3.75866L13.8232 2.98447C13.8593 2.94838 13.8879 2.90553 13.9074 2.85837C13.927 2.81121 13.937 2.76067 13.937 2.70963C13.937 2.65859 13.927 2.60805 13.9074 2.56089C13.8879 2.51373 13.8593 2.47088 13.8232 2.43479C13.7871 2.3987 13.7442 2.37007 13.6971 2.35054C13.6499 2.331 13.5994 2.32095 13.5483 2.32095C13.4973 2.32095 13.4468 2.331 13.3996 2.35054C13.3524 2.37007 13.3096 2.3987 13.2735 2.43479L12.4993 3.20898C12.463 3.24497 12.4342 3.28778 12.4146 3.33496C12.3949 3.38213 12.3848 3.43272 12.3848 3.48382C12.3848 3.53493 12.3949 3.58552 12.4146 3.63269C12.4342 3.67986 12.463 3.72268 12.4993 3.75866C12.5355 3.79454 12.5784 3.82292 12.6255 3.84219C12.6727 3.86145 12.7232 3.87121 12.7741 3.87092Z" stroke="#24262B" stroke-width="0.3"/>
</svg>
