<svg width="24" height="24" viewBox="0 0 24 24" fill="none" xmlns="http://www.w3.org/2000/svg">
<path d="M11.9952 16.6768V14.1398M15.4952 5.32576V4.95976C15.4952 3.73976 14.5052 2.74976 13.2852 2.74976H10.7052C9.4852 2.74976 8.4952 3.73976 8.4952 4.95976V5.32576M2.7745 15.483L2.9635 17.992C3.0915 19.683 4.5005 20.99 6.1955 20.99H17.7945C19.4895 20.99 20.8985 19.683 21.0265 17.992L21.2155 15.483M18.19 5.33016C19.88 5.33016 21.24 6.70016 21.24 8.39016V11.8302C18.78 13.2702 15.53 14.1402 11.99 14.1402C8.45 14.1402 5.21 13.2702 2.75 11.8302V8.38016C2.75 6.69016 4.12 5.33016 5.81 5.33016H18.19Z" stroke="#24262B" stroke-width="1.5" stroke-linecap="round" stroke-linejoin="round"/>
</svg>
